<?xml version="1.0" encoding="utf-8"?>
<!-- Generator: Adobe Illustrator 27.5.0, SVG Export Plug-In . SVG Version: 6.00 Build 0)  -->
<svg version="1.1" xmlns="http://www.w3.org/2000/svg" xmlns:xlink="http://www.w3.org/1999/xlink" x="0px" y="0px"
	 viewBox="0 0 500 500" style="enable-background:new 0 0 500 500;" xml:space="preserve">
<g id="Tab_00000014608902397240126470000013908971148247974304_">
	<g id="Tab">
		
			<path style="fill:#FFFFFF;stroke:#FF95FB;stroke-width:1.5;stroke-linecap:round;stroke-linejoin:round;stroke-miterlimit:10;" d="
			M444.303,336.283H183.282c-6.739,0-12.202-5.463-12.202-12.202V76.341h285.425V324.08
			C456.505,330.819,451.042,336.283,444.303,336.283z"/>
		<g>
			
				<path style="fill:#FFFFFF;stroke:#FF95FB;stroke-width:1.5;stroke-linecap:round;stroke-linejoin:round;stroke-miterlimit:10;" d="
				M456.505,76.341H171.08V64.839c0-3.709,3.007-6.716,6.716-6.716h271.993c3.709,0,6.716,3.007,6.716,6.716V76.341z"/>
			<g>
				<path style="fill:#00826F;" d="M446.409,67.232c0,2.143-1.737,3.88-3.88,3.88c-2.143,0-3.88-1.737-3.88-3.88
					c0-2.143,1.737-3.88,3.88-3.88C444.672,63.352,446.409,65.089,446.409,67.232z"/>
			</g>
			<g>
				<path style="fill:#F55571;" d="M431.615,67.232c0,2.143-1.737,3.88-3.88,3.88c-2.143,0-3.88-1.737-3.88-3.88
					c0-2.143,1.737-3.88,3.88-3.88C429.878,63.352,431.615,65.089,431.615,67.232z"/>
			</g>
			<g>
				<path style="fill:#303030;" d="M416.822,67.232c0,2.143-1.737,3.88-3.88,3.88c-2.143,0-3.88-1.737-3.88-3.88
					c0-2.143,1.737-3.88,3.88-3.88C415.084,63.352,416.822,65.089,416.822,67.232z"/>
			</g>
		</g>
		<g>
			<g>
				<g>
					
						<ellipse transform="matrix(0.7071 -0.7071 0.7071 0.7071 -12.3841 165.67)" style="fill:#00826F;" cx="193.789" cy="97.784" rx="10.89" ry="10.89"/>
					<path style="fill:#FFFFFF;" d="M199.309,96.467h-4.204v-4.204c0-0.727-0.59-1.317-1.317-1.317c-0.727,0-1.317,0.59-1.317,1.317
						v4.204h-4.204c-0.727,0-1.317,0.59-1.317,1.317c0,0.727,0.59,1.317,1.317,1.317h4.204v4.204c0,0.727,0.59,1.317,1.317,1.317
						c0.727,0,1.317-0.59,1.317-1.317V99.1h4.204c0.727,0,1.317-0.59,1.317-1.317C200.626,97.057,200.036,96.467,199.309,96.467z"/>
				</g>
				<g>
					<path d="M215.15,104.98V90.797h2.21l0.943,2.833v11.35H215.15z M224.934,104.98l-8.357-10.707l0.784-3.476l8.356,10.707
						L224.934,104.98z M224.934,104.98l-0.844-2.832V90.797h3.153v14.183H224.934z"/>
					<path d="M234.516,105.201c-1.059,0-1.999-0.218-2.822-0.652c-0.824-0.436-1.471-1.041-1.939-1.818
						c-0.47-0.776-0.703-1.653-0.703-2.632c0-0.977,0.23-1.851,0.692-2.621c0.462-0.77,1.088-1.376,1.879-1.818
						c0.79-0.441,1.68-0.663,2.671-0.663c0.965,0,1.816,0.208,2.552,0.623c0.736,0.415,1.315,0.991,1.737,1.728
						c0.422,0.737,0.633,1.581,0.633,2.531c0,0.174-0.01,0.358-0.03,0.553c-0.02,0.194-0.057,0.419-0.11,0.673l-8.417,0.02v-2.108
						l7.111-0.021l-1.326,0.884c-0.013-0.563-0.1-1.027-0.261-1.396c-0.161-0.368-0.398-0.65-0.713-0.843
						c-0.315-0.194-0.7-0.292-1.155-0.292c-0.482,0-0.9,0.11-1.256,0.332c-0.354,0.221-0.629,0.532-0.823,0.934
						c-0.194,0.402-0.291,0.891-0.291,1.467c0,0.576,0.104,1.068,0.312,1.477c0.207,0.408,0.502,0.723,0.884,0.944
						c0.381,0.221,0.833,0.331,1.355,0.331c0.482,0,0.917-0.084,1.306-0.251s0.73-0.419,1.024-0.754l1.688,1.688
						c-0.481,0.563-1.064,0.984-1.747,1.266C236.082,105.06,235.332,105.201,234.516,105.201z"/>
					<path d="M242.973,104.98l-3.375-9.763h3.013l2.09,7.091l-0.884,0.021l2.31-7.111h2.491l2.33,7.111l-0.904-0.021l2.109-7.091
						h3.014l-3.375,9.763h-2.511l-2.271-6.75h0.764l-2.311,6.75H242.973z"/>
					<path d="M260.448,104.98V90.797h3.153v14.183H260.448z M262.858,93.509v-2.712h7.674v2.712H262.858z M262.858,99.054v-2.632
						h7.071v2.632H262.858z M262.858,104.98v-2.732h7.774v2.732H262.858z"/>
					<path d="M272.522,104.98v-9.763h3.073v9.763H272.522z M278.97,104.98v-5.565c0-0.509-0.157-0.921-0.472-1.235
						c-0.315-0.314-0.714-0.472-1.195-0.472c-0.335,0-0.63,0.07-0.885,0.21c-0.254,0.141-0.455,0.342-0.603,0.604
						c-0.147,0.261-0.221,0.559-0.221,0.893l-1.185-0.583c0-0.763,0.168-1.433,0.503-2.009c0.334-0.575,0.8-1.021,1.395-1.336
						c0.596-0.314,1.269-0.472,2.02-0.472c0.723,0,1.362,0.171,1.918,0.513c0.556,0.341,0.994,0.793,1.315,1.355
						c0.322,0.563,0.483,1.179,0.483,1.849v6.247H278.97z"/>
					<path d="M283.067,97.829v-2.611h7.493v2.611H283.067z M285.277,104.98V91.179h3.073v13.801H285.277z"/>
					<path d="M291.906,104.98v-9.763h3.073v9.763H291.906z M294.979,99.617l-1.285-1.005c0.254-1.138,0.683-2.021,1.285-2.651
						c0.603-0.63,1.439-0.944,2.511-0.944c0.469,0,0.881,0.07,1.235,0.211c0.355,0.141,0.666,0.358,0.935,0.653l-1.828,2.31
						c-0.134-0.147-0.301-0.261-0.502-0.342c-0.201-0.08-0.429-0.12-0.684-0.12c-0.509,0-0.914,0.157-1.215,0.472
						C295.13,98.515,294.979,98.987,294.979,99.617z"/>
					<path d="M302.011,93.872c-0.482,0-0.881-0.164-1.195-0.492c-0.315-0.328-0.473-0.727-0.473-1.195
						c0-0.482,0.157-0.884,0.473-1.206c0.315-0.321,0.713-0.481,1.195-0.481c0.481,0,0.877,0.16,1.185,0.481
						c0.309,0.322,0.463,0.724,0.463,1.206c0,0.469-0.154,0.867-0.463,1.195C302.888,93.707,302.492,93.872,302.011,93.872z
						 M300.464,104.98v-9.763h3.073v9.763H300.464z"/>
					<path d="M310.528,105.201c-1.059,0-1.999-0.218-2.822-0.652c-0.824-0.436-1.471-1.041-1.938-1.818
						c-0.47-0.776-0.703-1.653-0.703-2.632c0-0.977,0.23-1.851,0.692-2.621c0.462-0.77,1.088-1.376,1.879-1.818
						c0.79-0.441,1.68-0.663,2.671-0.663c0.965,0,1.815,0.208,2.552,0.623c0.736,0.415,1.315,0.991,1.737,1.728
						c0.422,0.737,0.633,1.581,0.633,2.531c0,0.174-0.01,0.358-0.03,0.553c-0.02,0.194-0.057,0.419-0.11,0.673l-8.417,0.02v-2.108
						l7.111-0.021l-1.326,0.884c-0.013-0.563-0.1-1.027-0.261-1.396c-0.161-0.368-0.398-0.65-0.713-0.843
						c-0.315-0.194-0.7-0.292-1.155-0.292c-0.482,0-0.9,0.11-1.256,0.332c-0.354,0.221-0.629,0.532-0.823,0.934
						c-0.194,0.402-0.291,0.891-0.291,1.467c0,0.576,0.103,1.068,0.312,1.477c0.207,0.408,0.502,0.723,0.884,0.944
						c0.381,0.221,0.833,0.331,1.355,0.331c0.482,0,0.917-0.084,1.306-0.251c0.389-0.167,0.729-0.419,1.024-0.754l1.688,1.688
						c-0.481,0.563-1.064,0.984-1.747,1.266C312.095,105.06,311.345,105.201,310.528,105.201z"/>
					<path d="M320.271,105.221c-0.576,0-1.143-0.074-1.697-0.221c-0.557-0.148-1.072-0.358-1.547-0.633
						c-0.476-0.274-0.881-0.593-1.216-0.954l1.748-1.769c0.321,0.349,0.703,0.62,1.145,0.814c0.442,0.194,0.925,0.292,1.446,0.292
						c0.362,0,0.64-0.054,0.834-0.161c0.194-0.106,0.291-0.254,0.291-0.441c0-0.241-0.117-0.426-0.352-0.553
						c-0.234-0.127-0.532-0.241-0.894-0.342c-0.361-0.101-0.743-0.211-1.146-0.331c-0.401-0.121-0.783-0.288-1.145-0.502
						c-0.361-0.215-0.656-0.513-0.884-0.895c-0.228-0.382-0.342-0.867-0.342-1.456c0-0.63,0.161-1.176,0.482-1.638
						c0.321-0.462,0.776-0.826,1.366-1.095c0.589-0.268,1.278-0.401,2.068-0.401c0.83,0,1.598,0.144,2.301,0.432
						c0.703,0.288,1.275,0.713,1.717,1.275l-1.747,1.768c-0.309-0.361-0.653-0.615-1.035-0.763
						c-0.381-0.147-0.753-0.221-1.114-0.221c-0.349,0-0.609,0.05-0.783,0.15c-0.175,0.101-0.262,0.244-0.262,0.432
						c0,0.201,0.113,0.361,0.342,0.482c0.228,0.12,0.522,0.228,0.884,0.321c0.361,0.094,0.743,0.208,1.145,0.342
						c0.402,0.134,0.784,0.314,1.145,0.542c0.361,0.228,0.656,0.532,0.884,0.914c0.227,0.382,0.342,0.881,0.342,1.496
						c0,0.951-0.358,1.708-1.075,2.271C322.456,104.94,321.488,105.221,320.271,105.221z"/>
				</g>
			</g>
			<g>
				
					<path style="fill:#FFFFFF;stroke:#00826F;stroke-width:1.5;stroke-linecap:round;stroke-linejoin:round;stroke-miterlimit:10;" d="
					M437.828,139.385H189.119c-2.596,0-4.7-2.104-4.7-4.7v-10.288c0-2.596,2.104-4.7,4.7-4.7h248.709c2.596,0,4.7,2.104,4.7,4.7
					v10.288C442.529,137.281,440.424,139.385,437.828,139.385z"/>
				<g>
					<path style="fill:#00826F;" d="M190.584,127.167v-1.036h5.634v1.036H190.584z M192.834,133.037v-6.709h1.135v6.709H192.834z"/>
					<path style="fill:#00826F;" d="M197.609,127.434c-0.185,0-0.337-0.063-0.459-0.188c-0.121-0.125-0.183-0.28-0.183-0.464
						c0-0.185,0.061-0.339,0.183-0.464c0.122-0.125,0.274-0.188,0.459-0.188c0.19,0,0.346,0.063,0.464,0.188
						c0.118,0.125,0.178,0.279,0.178,0.464c0,0.184-0.06,0.339-0.178,0.464C197.955,127.371,197.8,127.434,197.609,127.434z
						 M197.066,133.037v-4.735h1.086v4.735H197.066z"/>
					<path style="fill:#00826F;" d="M198.951,129.288v-0.986h3.354v0.986H198.951z M200.086,133.037v-6.709h1.085v6.709H200.086z"/>
					<path style="fill:#00826F;" d="M203.094,133.037v-7.103h1.086v7.103H203.094z"/>
					<path style="fill:#00826F;" d="M207.583,133.136c-0.474,0-0.899-0.106-1.277-0.32c-0.378-0.214-0.678-0.509-0.897-0.884
						c-0.221-0.374-0.331-0.795-0.331-1.263c0-0.467,0.108-0.886,0.325-1.258c0.218-0.371,0.512-0.666,0.884-0.883
						c0.371-0.217,0.784-0.325,1.238-0.325c0.44,0,0.83,0.102,1.169,0.306c0.339,0.204,0.604,0.483,0.799,0.838
						c0.194,0.355,0.291,0.76,0.291,1.214c0,0.079-0.005,0.16-0.015,0.242c-0.01,0.082-0.025,0.172-0.044,0.271h-3.888v-0.889h3.325
						l-0.404,0.355c-0.014-0.289-0.069-0.533-0.168-0.73c-0.099-0.197-0.238-0.349-0.42-0.453c-0.181-0.105-0.402-0.158-0.666-0.158
						c-0.275,0-0.516,0.06-0.72,0.178c-0.204,0.118-0.362,0.284-0.474,0.498c-0.112,0.214-0.168,0.469-0.168,0.765
						c0,0.296,0.06,0.556,0.178,0.779c0.118,0.224,0.286,0.396,0.503,0.519c0.218,0.121,0.467,0.182,0.75,0.182
						c0.243,0,0.469-0.042,0.676-0.128c0.207-0.085,0.383-0.21,0.528-0.375l0.691,0.7c-0.23,0.27-0.51,0.474-0.839,0.612
						C208.3,133.066,207.951,133.136,207.583,133.136z"/>
				</g>
			</g>
			<g>
				
					<path style="fill:#FFFFFF;stroke:#00826F;stroke-width:1.5;stroke-linecap:round;stroke-linejoin:round;stroke-miterlimit:10;" d="
					M331.351,170.932H189.119c-2.596,0-4.7-2.104-4.7-4.7v-10.288c0-2.596,2.104-4.7,4.7-4.7h142.232c2.596,0,4.7,2.104,4.7,4.7
					v10.288C336.052,168.828,333.947,170.932,331.351,170.932z"/>
				<g>
					<path style="fill:#00826F;" d="M190.584,164.585l2.842-6.906h0.789l2.822,6.906h-1.224l-2.21-5.594h0.414l-2.229,5.594H190.584
						z M191.985,163.252v-0.986h3.66v0.986H191.985z"/>
					<path style="fill:#00826F;" d="M199.642,164.683c-0.401,0-0.759-0.089-1.071-0.267c-0.313-0.178-0.556-0.422-0.729-0.734
						c-0.175-0.313-0.262-0.673-0.262-1.081v-2.752h1.085v2.703c0,0.23,0.038,0.426,0.114,0.587c0.075,0.161,0.188,0.284,0.335,0.37
						c0.148,0.085,0.324,0.128,0.528,0.128c0.315,0,0.557-0.094,0.725-0.281s0.252-0.455,0.252-0.804v-2.703h1.085v2.752
						c0,0.415-0.087,0.778-0.262,1.091c-0.174,0.313-0.416,0.556-0.725,0.73C200.407,164.596,200.049,164.683,199.642,164.683z"/>
					<path style="fill:#00826F;" d="M202.385,160.835v-0.986h3.355v0.986H202.385z M203.52,164.585v-6.709h1.085v6.709H203.52z"/>
					<path style="fill:#00826F;" d="M206.528,164.585v-7.104h1.086v7.104H206.528z M209.774,164.585v-2.733
						c0-0.316-0.101-0.575-0.301-0.779c-0.201-0.203-0.459-0.306-0.774-0.306c-0.211,0-0.398,0.046-0.563,0.139
						c-0.164,0.092-0.293,0.22-0.385,0.385c-0.092,0.164-0.138,0.352-0.138,0.562l-0.425-0.236c0-0.361,0.079-0.683,0.237-0.962
						c0.157-0.279,0.376-0.5,0.656-0.661c0.279-0.161,0.593-0.241,0.941-0.241c0.355,0,0.671,0.078,0.947,0.236
						c0.276,0.158,0.493,0.377,0.651,0.656c0.158,0.279,0.236,0.604,0.236,0.972v2.97H209.774z"/>
					<path style="fill:#00826F;" d="M214.135,164.683c-0.461,0-0.878-0.11-1.253-0.33c-0.375-0.221-0.673-0.518-0.893-0.893
						c-0.221-0.375-0.331-0.792-0.331-1.253c0-0.46,0.11-0.875,0.331-1.243c0.22-0.368,0.518-0.662,0.893-0.883
						s0.792-0.33,1.253-0.33c0.467,0,0.888,0.108,1.263,0.325s0.673,0.512,0.892,0.883c0.221,0.372,0.331,0.788,0.331,1.248
						c0,0.461-0.11,0.878-0.331,1.253c-0.22,0.375-0.517,0.673-0.892,0.893C215.023,164.573,214.602,164.683,214.135,164.683z
						 M214.135,163.637c0.27,0,0.508-0.061,0.715-0.183c0.208-0.121,0.369-0.291,0.483-0.508c0.115-0.217,0.173-0.464,0.173-0.74
						c0-0.276-0.059-0.52-0.178-0.729c-0.118-0.211-0.279-0.377-0.483-0.499c-0.203-0.121-0.44-0.183-0.71-0.183
						c-0.264,0-0.498,0.062-0.705,0.183c-0.208,0.122-0.369,0.288-0.483,0.499c-0.115,0.21-0.173,0.453-0.173,0.729
						c0,0.276,0.058,0.523,0.173,0.74c0.114,0.217,0.275,0.387,0.483,0.508C213.637,163.577,213.871,163.637,214.135,163.637z"/>
					<path style="fill:#00826F;" d="M217.519,164.585v-4.735h1.086v4.735H217.519z M218.605,161.951l-0.375-0.188
						c0-0.599,0.133-1.084,0.399-1.456c0.267-0.371,0.669-0.557,1.208-0.557c0.237,0,0.451,0.042,0.642,0.128
						c0.19,0.085,0.368,0.224,0.533,0.414l-0.711,0.73c-0.085-0.092-0.181-0.158-0.286-0.197c-0.104-0.04-0.227-0.06-0.364-0.06
						c-0.303,0-0.553,0.096-0.75,0.286C218.703,161.244,218.605,161.542,218.605,161.951z"/>
				</g>
			</g>
			<g>
				
					<path style="fill:#FFFFFF;stroke:#00826F;stroke-width:1.5;stroke-linecap:round;stroke-linejoin:round;stroke-miterlimit:10;" d="
					M437.828,170.932h-88.486c-2.596,0-4.7-2.104-4.7-4.7v-10.288c0-2.596,2.104-4.7,4.7-4.7h88.486c2.596,0,4.7,2.104,4.7,4.7
					v10.288C442.529,168.828,440.424,170.932,437.828,170.932z"/>
				<g>
					<path style="fill:#00826F;" d="M351.32,164.585v-6.906h1.135v6.906H351.32z M352.1,164.585v-1.036h1.816
						c0.473,0,0.889-0.102,1.248-0.306c0.357-0.204,0.637-0.488,0.838-0.854c0.201-0.365,0.301-0.787,0.301-1.268
						c0-0.474-0.102-0.892-0.305-1.253c-0.205-0.362-0.486-0.645-0.844-0.849c-0.359-0.204-0.771-0.306-1.238-0.306H352.1v-1.036
						h1.846c0.5,0,0.963,0.087,1.391,0.262c0.428,0.174,0.801,0.417,1.119,0.73c0.32,0.313,0.568,0.678,0.746,1.096
						c0.178,0.417,0.266,0.873,0.266,1.366c0,0.486-0.088,0.94-0.266,1.361c-0.178,0.421-0.424,0.788-0.74,1.101
						s-0.688,0.556-1.115,0.729c-0.428,0.175-0.887,0.262-1.381,0.262H352.1z"/>
					<path style="fill:#00826F;" d="M360.457,164.683c-0.428,0-0.814-0.108-1.16-0.325c-0.346-0.218-0.617-0.512-0.818-0.884
						c-0.201-0.371-0.301-0.787-0.301-1.248c0-0.467,0.1-0.886,0.301-1.258c0.201-0.371,0.473-0.667,0.818-0.888
						s0.732-0.33,1.16-0.33c0.361,0,0.682,0.077,0.961,0.231s0.502,0.367,0.666,0.637c0.164,0.27,0.248,0.575,0.248,0.917v1.361
						c0,0.343-0.082,0.648-0.242,0.918c-0.162,0.27-0.383,0.482-0.666,0.637C361.141,164.606,360.818,164.683,360.457,164.683z
						 M360.635,163.657c0.4,0,0.725-0.135,0.971-0.404c0.248-0.27,0.371-0.615,0.371-1.036c0-0.282-0.057-0.532-0.168-0.75
						c-0.113-0.217-0.268-0.386-0.469-0.508c-0.201-0.121-0.436-0.183-0.705-0.183c-0.264,0-0.496,0.062-0.695,0.183
						c-0.201,0.122-0.359,0.291-0.475,0.508c-0.115,0.218-0.172,0.468-0.172,0.75c0,0.283,0.057,0.533,0.172,0.75
						c0.115,0.217,0.273,0.387,0.475,0.508C360.139,163.596,360.371,163.657,360.635,163.657z M361.906,164.585v-1.273l0.188-1.154
						l-0.188-1.145v-1.164h1.086v4.735H361.906z"/>
					<path style="fill:#00826F;" d="M363.781,160.835v-0.986h3.355v0.986H363.781z M364.916,164.585v-6.709h1.086v6.709H364.916z"/>
					<path style="fill:#00826F;" d="M369.986,164.683c-0.473,0-0.898-0.106-1.277-0.32c-0.377-0.214-0.678-0.509-0.897-0.884
						c-0.221-0.374-0.332-0.795-0.332-1.263c0-0.467,0.109-0.886,0.326-1.258c0.217-0.371,0.512-0.666,0.883-0.883
						c0.371-0.217,0.785-0.325,1.238-0.325c0.441,0,0.83,0.102,1.17,0.306c0.338,0.204,0.604,0.483,0.799,0.838
						c0.193,0.355,0.291,0.76,0.291,1.214c0,0.079-0.006,0.16-0.016,0.242c-0.01,0.082-0.023,0.172-0.043,0.271h-3.889v-0.889h3.326
						l-0.404,0.355c-0.014-0.289-0.07-0.533-0.168-0.73c-0.1-0.197-0.238-0.349-0.42-0.453c-0.182-0.105-0.402-0.158-0.666-0.158
						c-0.275,0-0.516,0.06-0.721,0.178c-0.203,0.118-0.361,0.284-0.473,0.498c-0.113,0.214-0.168,0.469-0.168,0.765
						s0.059,0.556,0.178,0.779c0.117,0.224,0.285,0.396,0.502,0.519c0.219,0.121,0.467,0.182,0.75,0.182
						c0.244,0,0.469-0.042,0.676-0.128c0.207-0.085,0.383-0.21,0.529-0.375l0.689,0.7c-0.23,0.27-0.51,0.474-0.838,0.612
						C370.703,164.614,370.355,164.683,369.986,164.683z"/>
				</g>
			</g>
			<g>
				<g>
					
						<path style="fill:#FFFFFF;stroke:#00826F;stroke-width:1.5;stroke-linecap:round;stroke-linejoin:round;stroke-miterlimit:10;" d="
						M331.351,201.966H189.119c-2.596,0-4.7-2.104-4.7-4.7v-10.288c0-2.596,2.104-4.7,4.7-4.7h142.232c2.596,0,4.7,2.104,4.7,4.7
						v10.288C336.052,199.862,333.947,201.966,331.351,201.966z"/>
					<g>
						<path style="fill:#00826F;" d="M194.235,195.717c-0.5,0-0.962-0.091-1.387-0.271c-0.424-0.181-0.794-0.434-1.109-0.76
							c-0.316-0.325-0.56-0.703-0.73-1.135c-0.171-0.431-0.257-0.893-0.257-1.386c0-0.493,0.086-0.955,0.257-1.387
							c0.171-0.431,0.414-0.807,0.73-1.129c0.315-0.322,0.686-0.576,1.109-0.76c0.425-0.185,0.887-0.276,1.387-0.276
							c0.559,0,1.042,0.092,1.45,0.276c0.407,0.184,0.77,0.434,1.085,0.75l-0.769,0.77c-0.204-0.224-0.452-0.398-0.745-0.523
							c-0.293-0.125-0.633-0.188-1.021-0.188c-0.343,0-0.655,0.06-0.938,0.178c-0.283,0.118-0.528,0.288-0.735,0.508
							c-0.207,0.221-0.366,0.482-0.479,0.785c-0.111,0.302-0.168,0.635-0.168,0.996c0,0.361,0.057,0.694,0.168,0.996
							c0.112,0.303,0.271,0.564,0.479,0.785c0.207,0.22,0.452,0.39,0.735,0.508c0.282,0.118,0.595,0.178,0.938,0.178
							c0.421,0,0.777-0.064,1.07-0.192c0.292-0.129,0.541-0.305,0.745-0.528l0.77,0.77c-0.316,0.322-0.688,0.576-1.115,0.76
							C195.277,195.625,194.787,195.717,194.235,195.717z"/>
						<path style="fill:#00826F;" d="M199.533,195.717c-0.428,0-0.814-0.108-1.159-0.325c-0.346-0.218-0.618-0.512-0.819-0.884
							c-0.2-0.371-0.301-0.787-0.301-1.248c0-0.467,0.101-0.886,0.301-1.258c0.201-0.371,0.474-0.667,0.819-0.888
							c0.345-0.221,0.732-0.33,1.159-0.33c0.361,0,0.683,0.077,0.962,0.231c0.279,0.154,0.502,0.367,0.666,0.637
							c0.164,0.27,0.247,0.575,0.247,0.917v1.361c0,0.343-0.081,0.648-0.242,0.918c-0.161,0.27-0.383,0.481-0.666,0.637
							C200.217,195.64,199.895,195.717,199.533,195.717z M199.711,194.69c0.401,0,0.725-0.135,0.972-0.404
							c0.247-0.27,0.37-0.615,0.37-1.036c0-0.282-0.056-0.532-0.168-0.75c-0.112-0.217-0.268-0.386-0.469-0.508
							c-0.2-0.121-0.436-0.183-0.705-0.183c-0.264,0-0.495,0.061-0.695,0.183c-0.201,0.122-0.359,0.291-0.474,0.508
							c-0.115,0.218-0.173,0.468-0.173,0.75c0,0.283,0.058,0.533,0.173,0.75c0.114,0.217,0.272,0.387,0.474,0.508
							C199.216,194.63,199.447,194.69,199.711,194.69z M200.983,195.618v-1.272l0.188-1.154l-0.188-1.145v-1.164h1.085v4.735
							H200.983z"/>
						<path style="fill:#00826F;" d="M202.858,191.869v-0.986h3.355v0.986H202.858z M203.993,195.618v-6.709h1.085v6.709H203.993z"
							/>
						<path style="fill:#00826F;" d="M209.064,195.717c-0.474,0-0.899-0.106-1.277-0.32c-0.378-0.214-0.678-0.509-0.897-0.884
							c-0.221-0.374-0.331-0.795-0.331-1.263c0-0.467,0.108-0.886,0.325-1.258c0.218-0.371,0.512-0.666,0.884-0.883
							c0.371-0.217,0.784-0.325,1.238-0.325c0.44,0,0.83,0.102,1.169,0.306c0.339,0.204,0.605,0.483,0.799,0.838
							c0.194,0.355,0.291,0.76,0.291,1.214c0,0.079-0.005,0.16-0.015,0.242c-0.01,0.082-0.024,0.172-0.044,0.271h-3.888v-0.889
							h3.325l-0.404,0.355c-0.014-0.289-0.069-0.533-0.168-0.73s-0.238-0.349-0.42-0.453c-0.181-0.106-0.402-0.158-0.666-0.158
							c-0.275,0-0.516,0.059-0.72,0.178c-0.204,0.118-0.362,0.284-0.474,0.498c-0.112,0.214-0.168,0.469-0.168,0.765
							s0.06,0.556,0.178,0.779c0.118,0.224,0.286,0.396,0.503,0.519c0.218,0.121,0.467,0.182,0.75,0.182
							c0.243,0,0.469-0.042,0.676-0.128c0.207-0.085,0.383-0.21,0.528-0.375l0.69,0.7c-0.23,0.27-0.51,0.474-0.839,0.612
							C209.78,195.648,209.432,195.717,209.064,195.717z"/>
						<path style="fill:#00826F;" d="M214.056,195.52c-0.421,0-0.801-0.104-1.14-0.311s-0.605-0.492-0.799-0.854
							c-0.194-0.362-0.291-0.767-0.291-1.214s0.097-0.849,0.291-1.203c0.194-0.356,0.46-0.637,0.799-0.844
							c0.339-0.207,0.719-0.311,1.14-0.311c0.375,0,0.704,0.075,0.987,0.227c0.282,0.151,0.503,0.36,0.661,0.626
							c0.157,0.267,0.236,0.577,0.236,0.933v1.164c0,0.349-0.081,0.658-0.241,0.928c-0.162,0.27-0.384,0.48-0.666,0.632
							C214.75,195.444,214.424,195.52,214.056,195.52z M214.105,197.69c-0.5,0-0.938-0.091-1.313-0.271
							c-0.375-0.182-0.678-0.436-0.907-0.765l0.71-0.711c0.19,0.237,0.408,0.415,0.651,0.533c0.243,0.118,0.536,0.178,0.878,0.178
							c0.428,0,0.767-0.11,1.017-0.331c0.25-0.22,0.375-0.521,0.375-0.902v-1.164l0.188-1.046l-0.188-1.056v-1.273h1.085v4.538
							c0,0.454-0.105,0.85-0.315,1.189c-0.211,0.339-0.504,0.604-0.879,0.795C215.033,197.595,214.599,197.69,214.105,197.69z
							 M214.273,194.493c0.263,0,0.493-0.056,0.69-0.167c0.197-0.112,0.35-0.269,0.459-0.469c0.108-0.201,0.162-0.436,0.162-0.706
							c0-0.27-0.054-0.505-0.162-0.705c-0.109-0.2-0.262-0.357-0.459-0.469c-0.197-0.111-0.428-0.168-0.69-0.168
							c-0.264,0-0.495,0.057-0.696,0.168c-0.2,0.112-0.356,0.269-0.469,0.469c-0.111,0.2-0.167,0.436-0.167,0.705
							c0,0.264,0.056,0.497,0.167,0.701c0.112,0.203,0.269,0.361,0.469,0.474C213.778,194.438,214.01,194.493,214.273,194.493z"/>
						<path style="fill:#00826F;" d="M219.976,195.717c-0.461,0-0.878-0.11-1.253-0.33c-0.375-0.221-0.673-0.519-0.893-0.894
							c-0.221-0.375-0.331-0.792-0.331-1.253c0-0.46,0.11-0.875,0.331-1.243c0.22-0.368,0.518-0.662,0.893-0.883
							s0.792-0.33,1.253-0.33c0.467,0,0.888,0.108,1.263,0.325c0.375,0.217,0.673,0.512,0.893,0.883
							c0.221,0.372,0.331,0.788,0.331,1.248c0,0.461-0.11,0.878-0.331,1.253c-0.22,0.375-0.518,0.673-0.893,0.894
							C220.863,195.606,220.442,195.717,219.976,195.717z M219.976,194.671c0.27,0,0.508-0.061,0.715-0.183
							c0.208-0.121,0.369-0.291,0.483-0.508c0.115-0.217,0.173-0.464,0.173-0.74c0-0.276-0.059-0.52-0.178-0.73
							c-0.118-0.211-0.279-0.377-0.483-0.499c-0.203-0.121-0.44-0.183-0.71-0.183c-0.264,0-0.498,0.061-0.705,0.183
							c-0.208,0.122-0.369,0.288-0.483,0.499c-0.115,0.21-0.173,0.453-0.173,0.73c0,0.276,0.058,0.523,0.173,0.74
							c0.114,0.217,0.275,0.387,0.483,0.508C219.477,194.61,219.712,194.671,219.976,194.671z"/>
						<path style="fill:#00826F;" d="M223.359,195.618v-4.735h1.086v4.735H223.359z M224.445,192.984l-0.375-0.188
							c0-0.599,0.133-1.084,0.399-1.456c0.267-0.371,0.669-0.557,1.208-0.557c0.237,0,0.451,0.042,0.642,0.128
							c0.19,0.085,0.368,0.224,0.533,0.414l-0.711,0.73c-0.085-0.092-0.181-0.158-0.286-0.197c-0.104-0.04-0.227-0.06-0.364-0.06
							c-0.303,0-0.553,0.096-0.75,0.286C224.544,192.277,224.445,192.576,224.445,192.984z"/>
						<path style="fill:#00826F;" d="M228.845,195.668l-2.022-4.785h1.194l1.381,3.512h-0.346l1.461-3.512h1.203l-2.2,4.785H228.845
							z M227.435,197.592l1.47-3.029l0.611,1.105l-0.878,1.924H227.435z"/>
					</g>
				</g>
				<g>
					<path style="fill:#00826F;" d="M194.235,195.717c-0.5,0-0.962-0.091-1.387-0.271c-0.424-0.181-0.794-0.434-1.109-0.76
						c-0.316-0.325-0.56-0.703-0.73-1.135c-0.171-0.431-0.257-0.893-0.257-1.386c0-0.493,0.086-0.955,0.257-1.387
						c0.171-0.431,0.414-0.807,0.73-1.129c0.315-0.322,0.686-0.576,1.109-0.76c0.425-0.185,0.887-0.276,1.387-0.276
						c0.559,0,1.042,0.092,1.45,0.276c0.407,0.184,0.77,0.434,1.085,0.75l-0.769,0.77c-0.204-0.224-0.452-0.398-0.745-0.523
						c-0.293-0.125-0.633-0.188-1.021-0.188c-0.343,0-0.655,0.06-0.938,0.178c-0.283,0.118-0.528,0.288-0.735,0.508
						c-0.207,0.221-0.366,0.482-0.479,0.785c-0.111,0.302-0.168,0.635-0.168,0.996c0,0.361,0.057,0.694,0.168,0.996
						c0.112,0.303,0.271,0.564,0.479,0.785c0.207,0.22,0.452,0.39,0.735,0.508c0.282,0.118,0.595,0.178,0.938,0.178
						c0.421,0,0.777-0.064,1.07-0.192c0.292-0.129,0.541-0.305,0.745-0.528l0.77,0.77c-0.316,0.322-0.688,0.576-1.115,0.76
						C195.277,195.625,194.787,195.717,194.235,195.717z"/>
					<path style="fill:#00826F;" d="M199.533,195.717c-0.428,0-0.814-0.108-1.159-0.325c-0.346-0.218-0.618-0.512-0.819-0.884
						c-0.2-0.371-0.301-0.787-0.301-1.248c0-0.467,0.101-0.886,0.301-1.258c0.201-0.371,0.474-0.667,0.819-0.888
						c0.345-0.221,0.732-0.33,1.159-0.33c0.361,0,0.683,0.077,0.962,0.231c0.279,0.154,0.502,0.367,0.666,0.637
						c0.164,0.27,0.247,0.575,0.247,0.917v1.361c0,0.343-0.081,0.648-0.242,0.918c-0.161,0.27-0.383,0.481-0.666,0.637
						C200.217,195.64,199.895,195.717,199.533,195.717z M199.711,194.69c0.401,0,0.725-0.135,0.972-0.404
						c0.247-0.27,0.37-0.615,0.37-1.036c0-0.282-0.056-0.532-0.168-0.75c-0.112-0.217-0.268-0.386-0.469-0.508
						c-0.2-0.121-0.436-0.183-0.705-0.183c-0.264,0-0.495,0.061-0.695,0.183c-0.201,0.122-0.359,0.291-0.474,0.508
						c-0.115,0.218-0.173,0.468-0.173,0.75c0,0.283,0.058,0.533,0.173,0.75c0.114,0.217,0.272,0.387,0.474,0.508
						C199.216,194.63,199.447,194.69,199.711,194.69z M200.983,195.618v-1.272l0.188-1.154l-0.188-1.145v-1.164h1.085v4.735H200.983
						z"/>
					<path style="fill:#00826F;" d="M202.858,191.869v-0.986h3.355v0.986H202.858z M203.993,195.618v-6.709h1.085v6.709H203.993z"/>
					<path style="fill:#00826F;" d="M209.064,195.717c-0.474,0-0.899-0.106-1.277-0.32c-0.378-0.214-0.678-0.509-0.897-0.884
						c-0.221-0.374-0.331-0.795-0.331-1.263c0-0.467,0.108-0.886,0.325-1.258c0.218-0.371,0.512-0.666,0.884-0.883
						c0.371-0.217,0.784-0.325,1.238-0.325c0.44,0,0.83,0.102,1.169,0.306c0.339,0.204,0.605,0.483,0.799,0.838
						c0.194,0.355,0.291,0.76,0.291,1.214c0,0.079-0.005,0.16-0.015,0.242c-0.01,0.082-0.024,0.172-0.044,0.271h-3.888v-0.889h3.325
						l-0.404,0.355c-0.014-0.289-0.069-0.533-0.168-0.73s-0.238-0.349-0.42-0.453c-0.181-0.106-0.402-0.158-0.666-0.158
						c-0.275,0-0.516,0.059-0.72,0.178c-0.204,0.118-0.362,0.284-0.474,0.498c-0.112,0.214-0.168,0.469-0.168,0.765
						s0.06,0.556,0.178,0.779c0.118,0.224,0.286,0.396,0.503,0.519c0.218,0.121,0.467,0.182,0.75,0.182
						c0.243,0,0.469-0.042,0.676-0.128c0.207-0.085,0.383-0.21,0.528-0.375l0.69,0.7c-0.23,0.27-0.51,0.474-0.839,0.612
						C209.78,195.648,209.432,195.717,209.064,195.717z"/>
					<path style="fill:#00826F;" d="M214.056,195.52c-0.421,0-0.801-0.104-1.14-0.311s-0.605-0.492-0.799-0.854
						c-0.194-0.362-0.291-0.767-0.291-1.214s0.097-0.849,0.291-1.203c0.194-0.356,0.46-0.637,0.799-0.844
						c0.339-0.207,0.719-0.311,1.14-0.311c0.375,0,0.704,0.075,0.987,0.227c0.282,0.151,0.503,0.36,0.661,0.626
						c0.157,0.267,0.236,0.577,0.236,0.933v1.164c0,0.349-0.081,0.658-0.241,0.928c-0.162,0.27-0.384,0.48-0.666,0.632
						C214.75,195.444,214.424,195.52,214.056,195.52z M214.105,197.69c-0.5,0-0.938-0.091-1.313-0.271
						c-0.375-0.182-0.678-0.436-0.907-0.765l0.71-0.711c0.19,0.237,0.408,0.415,0.651,0.533c0.243,0.118,0.536,0.178,0.878,0.178
						c0.428,0,0.767-0.11,1.017-0.331c0.25-0.22,0.375-0.521,0.375-0.902v-1.164l0.188-1.046l-0.188-1.056v-1.273h1.085v4.538
						c0,0.454-0.105,0.85-0.315,1.189c-0.211,0.339-0.504,0.604-0.879,0.795C215.033,197.595,214.599,197.69,214.105,197.69z
						 M214.273,194.493c0.263,0,0.493-0.056,0.69-0.167c0.197-0.112,0.35-0.269,0.459-0.469c0.108-0.201,0.162-0.436,0.162-0.706
						c0-0.27-0.054-0.505-0.162-0.705c-0.109-0.2-0.262-0.357-0.459-0.469c-0.197-0.111-0.428-0.168-0.69-0.168
						c-0.264,0-0.495,0.057-0.696,0.168c-0.2,0.112-0.356,0.269-0.469,0.469c-0.111,0.2-0.167,0.436-0.167,0.705
						c0,0.264,0.056,0.497,0.167,0.701c0.112,0.203,0.269,0.361,0.469,0.474C213.778,194.438,214.01,194.493,214.273,194.493z"/>
					<path style="fill:#00826F;" d="M219.976,195.717c-0.461,0-0.878-0.11-1.253-0.33c-0.375-0.221-0.673-0.519-0.893-0.894
						c-0.221-0.375-0.331-0.792-0.331-1.253c0-0.46,0.11-0.875,0.331-1.243c0.22-0.368,0.518-0.662,0.893-0.883
						s0.792-0.33,1.253-0.33c0.467,0,0.888,0.108,1.263,0.325c0.375,0.217,0.673,0.512,0.893,0.883
						c0.221,0.372,0.331,0.788,0.331,1.248c0,0.461-0.11,0.878-0.331,1.253c-0.22,0.375-0.518,0.673-0.893,0.894
						C220.863,195.606,220.442,195.717,219.976,195.717z M219.976,194.671c0.27,0,0.508-0.061,0.715-0.183
						c0.208-0.121,0.369-0.291,0.483-0.508c0.115-0.217,0.173-0.464,0.173-0.74c0-0.276-0.059-0.52-0.178-0.73
						c-0.118-0.211-0.279-0.377-0.483-0.499c-0.203-0.121-0.44-0.183-0.71-0.183c-0.264,0-0.498,0.061-0.705,0.183
						c-0.208,0.122-0.369,0.288-0.483,0.499c-0.115,0.21-0.173,0.453-0.173,0.73c0,0.276,0.058,0.523,0.173,0.74
						c0.114,0.217,0.275,0.387,0.483,0.508C219.477,194.61,219.712,194.671,219.976,194.671z"/>
					<path style="fill:#00826F;" d="M223.359,195.618v-4.735h1.086v4.735H223.359z M224.445,192.984l-0.375-0.188
						c0-0.599,0.133-1.084,0.399-1.456c0.267-0.371,0.669-0.557,1.208-0.557c0.237,0,0.451,0.042,0.642,0.128
						c0.19,0.085,0.368,0.224,0.533,0.414l-0.711,0.73c-0.085-0.092-0.181-0.158-0.286-0.197c-0.104-0.04-0.227-0.06-0.364-0.06
						c-0.303,0-0.553,0.096-0.75,0.286C224.544,192.277,224.445,192.576,224.445,192.984z"/>
					<path style="fill:#00826F;" d="M228.845,195.668l-2.022-4.785h1.194l1.381,3.512h-0.346l1.461-3.512h1.203l-2.2,4.785H228.845z
						 M227.435,197.592l1.47-3.029l0.611,1.105l-0.878,1.924H227.435z"/>
				</g>
				<path style="fill:#00826F;" d="M331.351,182.278h-14.988v19.688h14.988c2.596,0,4.7-2.104,4.7-4.7v-10.288
					C336.052,184.382,333.947,182.278,331.351,182.278z"/>
				<path style="fill:#FFFFFF;" d="M326.208,189.662h-2.654c-0.686,0-1.083,0.777-0.682,1.333l2.654,3.678
					c0.336,0.465,1.028,0.465,1.364,0l2.654-3.678c0.401-0.556,0.004-1.333-0.682-1.333H326.208z"/>
			</g>
			<g>
				<g>
					
						<path style="fill:#FFFFFF;stroke:#00826F;stroke-width:1.5;stroke-linecap:round;stroke-linejoin:round;stroke-miterlimit:10;" d="
						M437.828,201.966h-88.486c-2.596,0-4.7-2.104-4.7-4.7v-10.288c0-2.596,2.104-4.7,4.7-4.7h88.486c2.596,0,4.7,2.104,4.7,4.7
						v10.288C442.529,199.862,440.424,201.966,437.828,201.966z"/>
				</g>
				<g>
					<path style="fill:#00826F;" d="M350.807,189.748v-1.036h5.635v1.036H350.807z M353.057,195.618v-6.709h1.135v6.709H353.057z"/>
					<path style="fill:#00826F;" d="M357.684,195.668l-2.021-4.785h1.193l1.381,3.512h-0.346l1.461-3.512h1.203l-2.199,4.785
						H357.684z M356.273,197.592l1.471-3.029l0.611,1.105l-0.879,1.924H356.273z"/>
					<path style="fill:#00826F;" d="M361.147,197.592v-6.709h1.086v1.273l-0.188,1.154l0.188,1.145v3.138H361.147z M363.684,195.717
						c-0.363,0-0.686-0.077-0.967-0.231c-0.283-0.155-0.506-0.367-0.666-0.637c-0.162-0.27-0.242-0.575-0.242-0.918v-1.361
						c0-0.342,0.082-0.647,0.246-0.917c0.164-0.27,0.389-0.482,0.672-0.637c0.281-0.154,0.602-0.231,0.957-0.231
						c0.426,0,0.813,0.109,1.158,0.33s0.619,0.517,0.818,0.888c0.201,0.372,0.303,0.791,0.303,1.258
						c0,0.461-0.102,0.877-0.303,1.248c-0.199,0.372-0.473,0.666-0.818,0.884C364.496,195.608,364.109,195.717,363.684,195.717z
						 M363.506,194.69c0.262,0,0.494-0.061,0.695-0.183c0.201-0.121,0.357-0.291,0.473-0.508c0.115-0.217,0.174-0.467,0.174-0.75
						c0-0.282-0.059-0.532-0.174-0.75c-0.115-0.217-0.271-0.386-0.473-0.508c-0.201-0.121-0.434-0.183-0.695-0.183
						c-0.264,0-0.498,0.061-0.701,0.183c-0.203,0.122-0.361,0.291-0.473,0.508c-0.113,0.218-0.168,0.468-0.168,0.75
						c0,0.283,0.055,0.533,0.168,0.75c0.111,0.217,0.27,0.387,0.473,0.508C363.008,194.63,363.242,194.69,363.506,194.69z"/>
					<path style="fill:#00826F;" d="M369.07,195.717c-0.475,0-0.9-0.106-1.277-0.32c-0.379-0.214-0.678-0.509-0.898-0.884
						c-0.221-0.374-0.33-0.795-0.33-1.263c0-0.467,0.107-0.886,0.324-1.258c0.219-0.371,0.512-0.666,0.885-0.883
						c0.371-0.217,0.783-0.325,1.238-0.325c0.44,0,0.83,0.102,1.168,0.306c0.34,0.204,0.605,0.483,0.799,0.838
						c0.195,0.355,0.291,0.76,0.291,1.214c0,0.079-0.004,0.16-0.014,0.242c-0.01,0.082-0.025,0.172-0.045,0.271h-3.887v-0.889h3.324
						l-0.404,0.355c-0.014-0.289-0.068-0.533-0.168-0.73c-0.098-0.197-0.238-0.349-0.42-0.453c-0.18-0.106-0.402-0.158-0.666-0.158
						c-0.275,0-0.516,0.059-0.719,0.178c-0.205,0.118-0.363,0.284-0.475,0.498c-0.111,0.214-0.168,0.469-0.168,0.765
						s0.061,0.556,0.178,0.779c0.119,0.224,0.287,0.396,0.504,0.519c0.217,0.121,0.467,0.182,0.75,0.182
						c0.242,0,0.469-0.042,0.676-0.128c0.207-0.085,0.383-0.21,0.527-0.375l0.691,0.7c-0.23,0.27-0.51,0.474-0.84,0.612
						C369.787,195.648,369.438,195.717,369.07,195.717z"/>
				</g>
				<path style="fill:#00826F;" d="M437.828,182.278h-14.988v19.688h14.988c2.596,0,4.7-2.104,4.7-4.7v-10.288
					C442.529,184.382,440.424,182.278,437.828,182.278z"/>
				<path style="fill:#FFFFFF;" d="M432.685,189.662h-2.654c-0.686,0-1.083,0.777-0.682,1.333l2.654,3.678
					c0.336,0.465,1.028,0.465,1.363,0l2.654-3.678c0.401-0.556,0.004-1.333-0.682-1.333H432.685z"/>
			</g>
			<g>
				<path style="fill:#00826F;" d="M191.098,215.96v-6.906h1.135v6.906H191.098z M191.877,215.96v-1.036h1.816
					c0.474,0,0.89-0.102,1.248-0.306c0.358-0.204,0.638-0.488,0.839-0.854c0.2-0.365,0.301-0.787,0.301-1.268
					c0-0.474-0.103-0.892-0.306-1.253c-0.204-0.362-0.485-0.645-0.844-0.849s-0.771-0.306-1.238-0.306h-1.816v-1.036h1.845
					c0.5,0,0.964,0.087,1.392,0.262c0.427,0.174,0.801,0.417,1.119,0.73c0.319,0.313,0.567,0.678,0.745,1.096
					c0.178,0.417,0.267,0.873,0.267,1.366c0,0.486-0.089,0.94-0.267,1.361c-0.178,0.421-0.424,0.788-0.74,1.101
					c-0.315,0.313-0.686,0.556-1.114,0.729c-0.428,0.175-0.888,0.262-1.382,0.262H191.877z"/>
				<path style="fill:#00826F;" d="M200.451,216.058c-0.474,0-0.899-0.106-1.277-0.32c-0.378-0.214-0.678-0.509-0.897-0.884
					c-0.221-0.374-0.331-0.795-0.331-1.263c0-0.467,0.108-0.886,0.325-1.258c0.218-0.371,0.512-0.666,0.884-0.883
					c0.371-0.217,0.784-0.325,1.238-0.325c0.44,0,0.83,0.102,1.169,0.306c0.339,0.204,0.604,0.483,0.799,0.838
					c0.194,0.355,0.291,0.76,0.291,1.214c0,0.079-0.005,0.16-0.015,0.242c-0.01,0.082-0.024,0.172-0.044,0.271h-3.888v-0.889h3.325
					l-0.404,0.355c-0.014-0.289-0.069-0.533-0.168-0.73c-0.099-0.197-0.238-0.349-0.42-0.453c-0.181-0.105-0.402-0.158-0.666-0.158
					c-0.275,0-0.516,0.06-0.72,0.178c-0.204,0.118-0.362,0.284-0.474,0.498c-0.112,0.214-0.168,0.469-0.168,0.765
					s0.059,0.556,0.178,0.779c0.118,0.224,0.286,0.396,0.503,0.519c0.218,0.121,0.467,0.182,0.75,0.182
					c0.243,0,0.469-0.042,0.676-0.128c0.207-0.085,0.383-0.21,0.528-0.375l0.69,0.7c-0.23,0.27-0.51,0.474-0.839,0.612
					C201.167,215.989,200.819,216.058,200.451,216.058z"/>
				<path style="fill:#00826F;" d="M202.987,212.21v-0.986h3.354v0.986H202.987z M204.122,215.96v-6.709h1.085v6.709H204.122z"/>
				<path style="fill:#00826F;" d="M208.975,216.058c-0.428,0-0.814-0.108-1.159-0.325c-0.346-0.218-0.618-0.512-0.819-0.884
					c-0.2-0.371-0.301-0.787-0.301-1.248c0-0.467,0.101-0.886,0.301-1.258c0.201-0.371,0.474-0.667,0.819-0.888
					c0.345-0.221,0.731-0.33,1.159-0.33c0.361,0,0.683,0.077,0.962,0.231s0.502,0.367,0.666,0.637
					c0.164,0.27,0.247,0.575,0.247,0.917v1.361c0,0.343-0.081,0.648-0.242,0.918c-0.161,0.27-0.383,0.482-0.666,0.637
					C209.659,215.981,209.336,216.058,208.975,216.058z M209.153,215.032c0.401,0,0.725-0.135,0.972-0.404
					c0.247-0.27,0.37-0.615,0.37-1.036c0-0.282-0.056-0.532-0.168-0.75c-0.112-0.217-0.268-0.386-0.469-0.508
					c-0.2-0.121-0.436-0.183-0.705-0.183c-0.264,0-0.495,0.062-0.695,0.183c-0.201,0.122-0.359,0.291-0.474,0.508
					c-0.115,0.218-0.173,0.468-0.173,0.75c0,0.283,0.058,0.533,0.173,0.75c0.114,0.217,0.272,0.387,0.474,0.508
					C208.658,214.971,208.889,215.032,209.153,215.032z M210.425,215.96v-1.273l0.188-1.154l-0.188-1.145v-1.164h1.085v4.735
					H210.425z"/>
				<path style="fill:#00826F;" d="M213.267,210.356c-0.185,0-0.337-0.063-0.459-0.188c-0.121-0.125-0.183-0.28-0.183-0.464
					c0-0.185,0.061-0.339,0.183-0.464c0.122-0.125,0.274-0.188,0.459-0.188c0.19,0,0.346,0.063,0.464,0.188
					c0.118,0.125,0.178,0.279,0.178,0.464c0,0.184-0.06,0.339-0.178,0.464C213.613,210.294,213.458,210.356,213.267,210.356z
					 M212.724,215.96v-4.735h1.086v4.735H212.724z"/>
				<path style="fill:#00826F;" d="M215.023,215.96v-7.104h1.086v7.104H215.023z"/>
				<path style="fill:#00826F;" d="M218.861,216.058c-0.263,0-0.516-0.034-0.759-0.104c-0.244-0.069-0.468-0.168-0.671-0.296
					c-0.204-0.128-0.382-0.284-0.533-0.469l0.69-0.69c0.164,0.19,0.354,0.334,0.567,0.429c0.214,0.096,0.455,0.144,0.725,0.144
					c0.243,0,0.427-0.036,0.552-0.108c0.125-0.072,0.188-0.178,0.188-0.316c0-0.145-0.059-0.256-0.177-0.335
					c-0.119-0.079-0.271-0.146-0.459-0.202c-0.188-0.056-0.385-0.113-0.592-0.173c-0.208-0.06-0.405-0.14-0.593-0.242
					c-0.188-0.101-0.34-0.241-0.458-0.419c-0.119-0.178-0.178-0.408-0.178-0.69c0-0.303,0.07-0.563,0.212-0.779
					c0.142-0.218,0.342-0.385,0.602-0.504c0.26-0.118,0.57-0.177,0.933-0.177c0.382,0,0.719,0.067,1.012,0.202
					c0.292,0.135,0.537,0.337,0.734,0.606l-0.69,0.69c-0.138-0.171-0.296-0.299-0.474-0.385c-0.178-0.085-0.382-0.128-0.611-0.128
					c-0.218,0-0.385,0.033-0.504,0.099c-0.118,0.065-0.177,0.161-0.177,0.286c0,0.132,0.059,0.233,0.177,0.306
					c0.119,0.072,0.271,0.135,0.459,0.188c0.188,0.053,0.385,0.11,0.592,0.173c0.208,0.063,0.405,0.148,0.593,0.256
					c0.188,0.109,0.34,0.254,0.458,0.434c0.119,0.181,0.178,0.416,0.178,0.705c0,0.461-0.161,0.826-0.483,1.096
					C219.851,215.923,219.414,216.058,218.861,216.058z"/>
			</g>
			
				<path style="fill:#FFFFFF;stroke:#00826F;stroke-width:1.5;stroke-linecap:round;stroke-linejoin:round;stroke-miterlimit:10;" d="
				M331.351,286.019H189.119c-2.596,0-4.7-2.104-4.7-4.7v-52.315c0-2.596,2.104-4.7,4.7-4.7h142.232c2.596,0,4.7,2.104,4.7,4.7
				v52.315C336.052,283.914,333.947,286.019,331.351,286.019z"/>
			
				<path style="fill:#FFFFFF;stroke:#00826F;stroke-width:1.5;stroke-linecap:round;stroke-linejoin:round;stroke-miterlimit:10;" d="
				M437.828,286.019h-88.486c-2.596,0-4.7-2.104-4.7-4.7v-52.315c0-2.596,2.104-4.7,4.7-4.7h88.486c2.596,0,4.7,2.104,4.7,4.7
				v52.315C442.529,283.914,440.424,286.019,437.828,286.019z"/>
			<g>
				<path style="fill:#FF95FB;" d="M306.967,321.562h55.097c2.116,0,3.832-1.716,3.832-3.832v-12.194
					c0-2.116-1.716-3.832-3.832-3.832h-55.097c-2.117,0-3.832,1.716-3.832,3.832v12.194
					C303.134,319.846,304.85,321.562,306.967,321.562z"/>
				<g>
					<path style="fill:#FFFFFF;" d="M323.013,315.716c-0.521,0-1.002-0.091-1.446-0.272c-0.443-0.181-0.832-0.435-1.164-0.765
						c-0.332-0.328-0.59-0.712-0.774-1.149c-0.184-0.438-0.276-0.909-0.276-1.415c0-0.507,0.093-0.978,0.276-1.416
						c0.185-0.438,0.44-0.817,0.77-1.14c0.329-0.322,0.716-0.574,1.159-0.755c0.444-0.181,0.926-0.272,1.445-0.272
						c0.553,0,1.045,0.089,1.475,0.267c0.431,0.178,0.808,0.421,1.13,0.73l-1.036,1.045c-0.185-0.197-0.406-0.352-0.666-0.463
						c-0.26-0.112-0.561-0.168-0.903-0.168c-0.302,0-0.58,0.051-0.833,0.152c-0.254,0.103-0.471,0.249-0.651,0.439
						c-0.181,0.191-0.322,0.421-0.425,0.691c-0.102,0.27-0.152,0.566-0.152,0.889c0,0.328,0.051,0.628,0.152,0.898
						c0.103,0.27,0.244,0.5,0.425,0.69c0.181,0.191,0.397,0.339,0.651,0.444c0.253,0.105,0.531,0.157,0.833,0.157
						c0.355,0,0.665-0.056,0.928-0.167c0.263-0.112,0.49-0.267,0.681-0.464l1.046,1.046c-0.335,0.309-0.719,0.552-1.15,0.729
						C324.076,315.627,323.578,315.716,323.013,315.716z"/>
					<path style="fill:#FFFFFF;" d="M328.261,315.707c-0.44,0-0.833-0.108-1.179-0.325c-0.345-0.218-0.618-0.514-0.818-0.889
						c-0.201-0.375-0.302-0.802-0.302-1.282c0-0.48,0.101-0.907,0.302-1.282c0.2-0.375,0.474-0.671,0.818-0.889
						c0.346-0.217,0.738-0.325,1.179-0.325c0.322,0,0.613,0.063,0.874,0.188c0.26,0.125,0.472,0.298,0.636,0.518
						c0.165,0.221,0.257,0.473,0.276,0.755v2.072c-0.02,0.282-0.11,0.534-0.272,0.755c-0.161,0.22-0.373,0.393-0.636,0.518
						C328.876,315.644,328.583,315.707,328.261,315.707z M328.567,314.345c0.322,0,0.582-0.107,0.779-0.321
						c0.197-0.213,0.296-0.484,0.296-0.814c0-0.224-0.045-0.421-0.134-0.592c-0.088-0.171-0.213-0.305-0.374-0.4
						c-0.162-0.096-0.348-0.143-0.558-0.143c-0.211,0-0.396,0.048-0.558,0.143c-0.161,0.095-0.29,0.229-0.385,0.4
						c-0.096,0.171-0.144,0.368-0.144,0.592c0,0.217,0.046,0.411,0.139,0.582c0.092,0.171,0.22,0.306,0.385,0.404
						C328.179,314.295,328.363,314.345,328.567,314.345z M329.583,315.608v-1.292l0.227-1.165l-0.227-1.164v-1.174h1.48v4.795
						H329.583z"/>
					<path style="fill:#FFFFFF;" d="M332.129,315.608v-4.795h1.509v4.795H332.129z M335.296,315.608v-2.733
						c0-0.249-0.078-0.452-0.232-0.606s-0.35-0.232-0.587-0.232c-0.164,0-0.31,0.034-0.434,0.104
						c-0.125,0.069-0.225,0.168-0.297,0.296c-0.072,0.128-0.108,0.274-0.108,0.439l-0.582-0.286c0-0.374,0.082-0.703,0.247-0.986
						c0.164-0.282,0.393-0.501,0.686-0.656c0.293-0.154,0.623-0.231,0.991-0.231c0.355,0,0.67,0.084,0.942,0.252
						c0.273,0.167,0.488,0.39,0.646,0.665c0.158,0.276,0.236,0.579,0.236,0.908v3.068H335.296z"/>
					<path style="fill:#FFFFFF;" d="M340.091,315.716c-0.493,0-0.94-0.108-1.342-0.325c-0.401-0.218-0.717-0.517-0.947-0.898
						c-0.23-0.381-0.346-0.809-0.346-1.282c0-0.48,0.117-0.909,0.351-1.287c0.233-0.379,0.551-0.677,0.952-0.894
						c0.401-0.217,0.852-0.325,1.352-0.325c0.375,0,0.719,0.064,1.031,0.192c0.313,0.128,0.59,0.32,0.833,0.577l-0.967,0.967
						c-0.111-0.125-0.241-0.217-0.39-0.276c-0.147-0.06-0.317-0.089-0.508-0.089c-0.217,0-0.409,0.048-0.577,0.143
						c-0.168,0.095-0.3,0.227-0.395,0.395c-0.096,0.167-0.144,0.363-0.144,0.587c0,0.224,0.048,0.421,0.144,0.592
						c0.095,0.171,0.228,0.306,0.399,0.404c0.171,0.099,0.361,0.148,0.572,0.148c0.197,0,0.373-0.035,0.527-0.104
						c0.155-0.069,0.288-0.166,0.4-0.291l0.957,0.967c-0.25,0.263-0.533,0.462-0.849,0.597
						C340.83,315.649,340.478,315.716,340.091,315.716z"/>
					<path style="fill:#FFFFFF;" d="M344.915,315.716c-0.52,0-0.981-0.106-1.386-0.32s-0.722-0.512-0.952-0.894
						c-0.23-0.381-0.346-0.812-0.346-1.292c0-0.48,0.113-0.909,0.341-1.287c0.227-0.379,0.534-0.677,0.922-0.894
						c0.389-0.217,0.826-0.325,1.313-0.325c0.474,0,0.892,0.102,1.253,0.306c0.362,0.204,0.646,0.487,0.853,0.849
						c0.207,0.361,0.311,0.776,0.311,1.243c0,0.085-0.005,0.176-0.015,0.271c-0.01,0.095-0.028,0.205-0.054,0.33l-4.134,0.01v-1.036
						l3.492-0.01l-0.651,0.435c-0.007-0.276-0.049-0.505-0.128-0.686s-0.196-0.319-0.351-0.415
						c-0.154-0.095-0.344-0.143-0.567-0.143c-0.236,0-0.442,0.054-0.616,0.163c-0.175,0.108-0.31,0.261-0.404,0.458
						c-0.096,0.197-0.144,0.438-0.144,0.721c0,0.283,0.051,0.524,0.153,0.725c0.102,0.201,0.246,0.355,0.434,0.464
						s0.409,0.163,0.666,0.163c0.237,0,0.45-0.041,0.642-0.123c0.19-0.082,0.358-0.206,0.503-0.37l0.829,0.828
						c-0.237,0.276-0.523,0.484-0.858,0.622C345.685,315.647,345.316,315.716,344.915,315.716z"/>
					<path style="fill:#FFFFFF;" d="M347.954,315.608v-7.163h1.509v7.163H347.954z"/>
				</g>
			</g>
			<g>
				<path style="fill:#00826F;" d="M383.599,321.562h55.097c2.116,0,3.832-1.716,3.832-3.832v-12.194
					c0-2.116-1.716-3.832-3.832-3.832h-55.097c-2.116,0-3.832,1.716-3.832,3.832v12.194
					C379.767,319.846,381.483,321.562,383.599,321.562z"/>
				<g>
					<path style="fill:#FFFFFF;" d="M402.825,315.716c-0.572,0-1.064-0.094-1.476-0.281s-0.787-0.472-1.129-0.854l1.006-0.996
						c0.224,0.257,0.472,0.455,0.745,0.597c0.272,0.142,0.59,0.212,0.952,0.212c0.329,0,0.584-0.059,0.765-0.178
						c0.181-0.118,0.271-0.282,0.271-0.493c0-0.19-0.06-0.345-0.178-0.464c-0.118-0.118-0.274-0.22-0.469-0.306
						c-0.194-0.085-0.408-0.167-0.642-0.246s-0.465-0.17-0.695-0.272c-0.23-0.101-0.442-0.23-0.637-0.385
						c-0.193-0.154-0.35-0.349-0.469-0.582c-0.118-0.233-0.177-0.528-0.177-0.883c0-0.428,0.104-0.796,0.311-1.105
						c0.207-0.309,0.495-0.544,0.863-0.705c0.368-0.161,0.792-0.242,1.272-0.242c0.486,0,0.933,0.086,1.337,0.257
						s0.738,0.404,1.002,0.7l-1.007,0.997c-0.211-0.218-0.423-0.379-0.637-0.483c-0.214-0.105-0.455-0.158-0.725-0.158
						c-0.27,0-0.483,0.051-0.642,0.152c-0.158,0.103-0.236,0.249-0.236,0.44c0,0.178,0.059,0.32,0.178,0.43
						c0.118,0.108,0.274,0.202,0.468,0.28c0.194,0.079,0.408,0.158,0.642,0.237s0.466,0.171,0.695,0.276
						c0.23,0.105,0.442,0.238,0.637,0.399c0.194,0.161,0.351,0.365,0.469,0.611c0.118,0.247,0.178,0.552,0.178,0.913
						c0,0.664-0.237,1.186-0.711,1.563C404.315,315.527,403.66,315.716,402.825,315.716z"/>
					<path style="fill:#FFFFFF;" d="M408.32,315.706c-0.44,0-0.833-0.108-1.179-0.325c-0.345-0.218-0.618-0.514-0.818-0.889
						c-0.201-0.375-0.302-0.802-0.302-1.282c0-0.48,0.101-0.907,0.302-1.282c0.2-0.375,0.474-0.671,0.818-0.889
						c0.346-0.217,0.738-0.325,1.179-0.325c0.322,0,0.613,0.063,0.874,0.188c0.26,0.125,0.472,0.298,0.636,0.518
						c0.165,0.221,0.257,0.473,0.276,0.755v2.072c-0.02,0.282-0.11,0.534-0.271,0.755c-0.161,0.22-0.373,0.393-0.636,0.518
						C408.935,315.644,408.643,315.706,408.32,315.706z M408.627,314.345c0.322,0,0.582-0.107,0.779-0.321
						c0.197-0.213,0.296-0.484,0.296-0.813c0-0.224-0.045-0.421-0.134-0.592c-0.088-0.171-0.213-0.305-0.374-0.399
						c-0.162-0.096-0.348-0.144-0.558-0.144c-0.211,0-0.396,0.048-0.558,0.144c-0.161,0.095-0.29,0.228-0.385,0.399
						c-0.096,0.171-0.143,0.368-0.143,0.592c0,0.217,0.046,0.411,0.139,0.582c0.092,0.171,0.22,0.306,0.385,0.404
						C408.238,314.295,408.423,314.345,408.627,314.345z M409.643,315.607v-1.292l0.227-1.165l-0.227-1.164v-1.174h1.48v4.795
						H409.643z"/>
					<path style="fill:#FFFFFF;" d="M413.697,315.607l-2.032-4.795h1.628l1.382,3.996h-0.711l1.382-3.996h1.598l-2.032,4.795
						H413.697z"/>
					<path style="fill:#FFFFFF;" d="M419.726,315.716c-0.52,0-0.981-0.106-1.386-0.32c-0.404-0.214-0.722-0.512-0.952-0.893
						c-0.23-0.381-0.346-0.812-0.346-1.292c0-0.48,0.113-0.909,0.341-1.287c0.227-0.379,0.534-0.677,0.922-0.894
						c0.389-0.217,0.826-0.325,1.313-0.325c0.474,0,0.892,0.102,1.253,0.306c0.362,0.204,0.647,0.487,0.854,0.849
						c0.207,0.361,0.311,0.776,0.311,1.243c0,0.085-0.005,0.176-0.015,0.271c-0.01,0.095-0.028,0.205-0.054,0.33l-4.134,0.01v-1.036
						l3.492-0.01l-0.651,0.435c-0.007-0.276-0.049-0.505-0.128-0.686c-0.079-0.181-0.196-0.319-0.351-0.415
						c-0.154-0.095-0.344-0.143-0.567-0.143c-0.236,0-0.442,0.054-0.616,0.163c-0.175,0.108-0.31,0.261-0.404,0.458
						c-0.096,0.197-0.144,0.438-0.144,0.721s0.051,0.524,0.153,0.725c0.102,0.201,0.246,0.355,0.434,0.464s0.409,0.163,0.666,0.163
						c0.237,0,0.45-0.041,0.642-0.123c0.191-0.082,0.358-0.206,0.503-0.37l0.829,0.828c-0.237,0.276-0.524,0.484-0.858,0.622
						C420.495,315.647,420.127,315.716,419.726,315.716z"/>
				</g>
			</g>
			<g>
				<g>
					
						<rect x="357.497" y="235.625" style="fill:#FFFFFF;stroke:#FF95FB;stroke-width:1.5;stroke-linecap:round;stroke-linejoin:round;stroke-miterlimit:10;stroke-dasharray:8,5;" width="72.176" height="38.604"/>
					<g>
						
							<rect x="391.958" y="234.07" style="fill:#FFFFFF;stroke:#FF95FB;stroke-width:1.5;stroke-linecap:round;stroke-linejoin:round;stroke-miterlimit:10;" width="3.256" height="3.11"/>
						
							<rect x="428.046" y="234.07" style="fill:#FFFFFF;stroke:#FF95FB;stroke-width:1.5;stroke-linecap:round;stroke-linejoin:round;stroke-miterlimit:10;" width="3.256" height="3.11"/>
						
							<rect x="355.87" y="234.07" style="fill:#FFFFFF;stroke:#FF95FB;stroke-width:1.5;stroke-linecap:round;stroke-linejoin:round;stroke-miterlimit:10;" width="3.256" height="3.11"/>
						
							<path style="fill:#FFFFFF;stroke:#FF95FB;stroke-width:1.5;stroke-linecap:round;stroke-linejoin:round;stroke-miterlimit:10;" d="
							M357.57,256.482h-0.145c-0.859,0-1.555-0.696-1.555-1.555l0,0c0-0.859,0.696-1.555,1.555-1.555h0.145
							c0.859,0,1.555,0.696,1.555,1.555l0,0C359.125,255.786,358.429,256.482,357.57,256.482z"/>
						
							<path style="fill:#FFFFFF;stroke:#FF95FB;stroke-width:1.5;stroke-linecap:round;stroke-linejoin:round;stroke-miterlimit:10;" d="
							M429.746,256.482h-0.145c-0.859,0-1.555-0.696-1.555-1.555l0,0c0-0.859,0.696-1.555,1.555-1.555h0.145
							c0.859,0,1.555,0.696,1.555,1.555l0,0C431.301,255.786,430.605,256.482,429.746,256.482z"/>
					</g>
					<g>
						
							<rect x="391.958" y="272.674" style="fill:#FFFFFF;stroke:#FF95FB;stroke-width:1.5;stroke-linecap:round;stroke-linejoin:round;stroke-miterlimit:10;" width="3.256" height="3.11"/>
						
							<rect x="428.046" y="272.674" style="fill:#FFFFFF;stroke:#FF95FB;stroke-width:1.5;stroke-linecap:round;stroke-linejoin:round;stroke-miterlimit:10;" width="3.256" height="3.11"/>
						
							<rect x="355.87" y="272.674" style="fill:#FFFFFF;stroke:#FF95FB;stroke-width:1.5;stroke-linecap:round;stroke-linejoin:round;stroke-miterlimit:10;" width="3.256" height="3.11"/>
					</g>
				</g>
			</g>
			<g>
				
					<rect x="365.174" y="243.335" style="fill:#FFFFFF;stroke:#00826F;stroke-width:1.5;stroke-linecap:round;stroke-linejoin:round;stroke-miterlimit:10;" width="23.183" height="23.183"/>
				
					<polyline style="fill:none;stroke:#00826F;stroke-width:1.5;stroke-linecap:round;stroke-linejoin:round;stroke-miterlimit:10;" points="
					365.174,259.568 373.401,252.385 381.093,259.568 				"/>
				
					<polyline style="fill:none;stroke:#00826F;stroke-width:1.5;stroke-linecap:round;stroke-linejoin:round;stroke-miterlimit:10;" points="
					377.788,256.482 381.663,253.372 388.357,258.936 				"/>
				<path style="fill:none;stroke:#00826F;stroke-width:1.5;stroke-linecap:round;stroke-linejoin:round;stroke-miterlimit:10;" d="
					M379.708,249.161c0,1.06-0.859,1.92-1.92,1.92c-1.06,0-1.92-0.859-1.92-1.92c0-1.06,0.859-1.92,1.92-1.92
					C378.849,247.241,379.708,248.101,379.708,249.161z"/>
			</g>
			<g>
				
					<rect x="398.814" y="243.335" transform="matrix(-1 -1.224647e-16 1.224647e-16 -1 820.8109 509.8539)" style="fill:#FFFFFF;stroke:#00826F;stroke-width:1.5;stroke-linecap:round;stroke-linejoin:round;stroke-miterlimit:10;" width="23.183" height="23.183"/>
				<path style="fill:none;stroke:#00826F;stroke-width:1.5;stroke-linecap:round;stroke-linejoin:round;stroke-miterlimit:10;" d="
					M405.614,259.067v-8.201c0-1.055,1.136-1.72,2.056-1.203l7.629,4.288c0.959,0.539,0.933,1.929-0.046,2.431l-7.629,3.913
					C406.706,260.766,405.614,260.099,405.614,259.067z"/>
			</g>
		</g>
	</g>
</g>
<g id="Box_00000000913719719854516960000008199469713742781620_">
	<g id="Box_00000147208046212786268380000006760803953150175109_">
		
			<rect x="323.876" y="376.659" style="fill:#303030;stroke:#303030;stroke-width:1.5;stroke-miterlimit:10;" width="80.353" height="80.353"/>
		
			<rect x="347.509" y="376.659" style="fill:#00826F;stroke:#303030;stroke-width:1.5;stroke-miterlimit:10;" width="80.353" height="80.353"/>
		
			<rect x="411.176" y="376.659" style="fill:#303030;stroke:#303030;stroke-width:1.5;stroke-miterlimit:10;" width="8.111" height="26.961"/>
	</g>
</g>
<g id="Character">
	<g id="Box_00000033343399534506577060000017756278488238883506_">
		
			<rect x="43.312" y="376.659" style="fill:#303030;stroke:#303030;stroke-width:1.5;stroke-miterlimit:10;" width="80.353" height="80.353"/>
		
			<rect x="66.945" y="376.659" style="fill:#00826F;stroke:#303030;stroke-width:1.5;stroke-miterlimit:10;" width="80.353" height="80.353"/>
		
			<rect x="130.612" y="376.659" style="fill:#303030;stroke:#303030;stroke-width:1.5;stroke-miterlimit:10;" width="8.111" height="26.961"/>
	</g>
	<g id="Box">
		
			<rect x="52.583" y="296.307" style="fill:#303030;stroke:#303030;stroke-width:1.5;stroke-miterlimit:10;" width="80.353" height="80.353"/>
		
			<rect x="76.216" y="296.307" style="fill:#00826F;stroke:#303030;stroke-width:1.5;stroke-miterlimit:10;" width="80.353" height="80.353"/>
		
			<rect x="139.883" y="296.307" style="fill:#303030;stroke:#303030;stroke-width:1.5;stroke-miterlimit:10;" width="8.111" height="26.961"/>
	</g>
	<g id="Character_00000102515125082492564060000003403053525935675014_">
		<g id="Arm_00000172435605730939660550000001044389193527280574_">
			<g>
				<path style="fill:#753C40;" d="M146.148,209.546c5.316,4.276,10.304,7.469,14.584,7.25c4.896-0.25,7.685-3.749,10.676-7.309
					c6.307-7.505,12.487-16.423,15.005-19.29c0.179-0.204,0.355-0.366,0.531-0.535c1.965-1.778,3.956-1.189,7.297-3.154
					c1.256-0.739,2.418-1.864,3.563-2.973c0.205,0.343,0.48,0.543,0.771,0.641c0.444,0.515,1.08,0.583,1.55,0.496
					c0.675-0.125,1.239-0.584,1.707-1.086c0.882-0.945,1.539-2.099,1.902-3.34c0.237-0.813,0.348-1.693,0.1-2.503
					c-0.248-0.81-0.772-1.095-1.106-1.164c0.598-1.097,0.65-2.415,0.187-3.426c-0.463-1.011-0.84-1.644-1.714-1.765
					c0.533-1.073,0.464-1.805-0.042-2.704c-0.622-1.108-1.936-1.41-3.295-1.284c1.698-1.515,3.562-2.843,5.549-3.952
					c0.938-0.523,2.518-1.634,2.048-2.943c-0.31-0.864-0.893-1.502-2.995-1.179c-1.987,0.305-3.813,1.308-5.549,2.273
					c-1.771,0.984-3.357,2.153-4.964,3.386c-1.608,1.234-2.603,2.17-3.95,3.058c-1.3,0.856-1.706,0.082-1.495-1.254
					c0.269-1.703,1.33-3.56,1.096-5.268c-0.042-0.309-0.154-1.104-0.476-1.372c-0.598-0.5-1.098-0.567-1.595-0.442
					c-1.5,0.374-2.326,2.823-2.929,3.876c-0.798,1.391-1.664,2.747-2.266,4.24c-0.774,1.921-1.417,4.531-1.765,6.576
					c-0.427,2.51-2.699,4.777-4.501,6.495c-2.479,2.363-9.798,7.271-14.503,10.325c-4.734-6.134-18.104-23.335-20.87-25.947
					c-2.766-2.612-8.32-4.374-12.99-3.969l1.854,33.495C127.564,194.795,138.481,203.379,146.148,209.546z"/>
			</g>
			<path style="fill:none;stroke:#303030;stroke-width:1.5;stroke-linecap:round;stroke-linejoin:round;stroke-miterlimit:10;" d="
				M186.945,189.662c1.965-1.778,3.956-1.189,7.297-3.154c1.256-0.739,2.418-1.864,3.563-2.973c0.205,0.343,0.48,0.543,0.771,0.641
				c0.444,0.515,1.08,0.583,1.55,0.496c0.675-0.125,1.239-0.584,1.707-1.086c0.882-0.945,1.539-2.099,1.902-3.34
				c0.237-0.813,0.348-1.693,0.1-2.503c-0.248-0.81-0.772-1.095-1.106-1.164c0.598-1.097,0.65-2.415,0.187-3.426
				c-0.463-1.011-0.84-1.644-1.714-1.765c0.533-1.073,0.464-1.805-0.042-2.704c-0.622-1.108-1.936-1.41-3.295-1.284
				c1.698-1.515,3.562-2.843,5.549-3.952c0.938-0.523,2.518-1.634,2.048-2.943c-0.31-0.864-0.893-1.502-2.995-1.179
				c-1.987,0.305-3.813,1.308-5.549,2.273c-1.771,0.984-3.357,2.153-4.964,3.386c-1.608,1.234-2.603,2.17-3.95,3.058
				c-1.3,0.856-1.706,0.082-1.495-1.254c0.269-1.703,1.33-3.56,1.096-5.268c-0.042-0.309-0.154-1.104-0.476-1.372
				c-0.598-0.5-1.098-0.567-1.595-0.442c-1.5,0.374-2.326,2.823-2.929,3.876c-0.798,1.391-1.664,2.747-2.266,4.24"/>
			<path style="fill:none;stroke:#303030;stroke-width:1.5;stroke-linecap:round;stroke-linejoin:round;stroke-miterlimit:10;" d="
				M201.454,170.841c-0.88,1.999-2.192,3.808-3.819,5.265c-0.754,0.675-1.602,1.289-2.581,1.543
				c-0.84,0.218-2.023,0.218-2.628-0.439c-0.796-0.864-0.508-2.106,0.202-2.921c0.374-0.429,0.699-0.894,1.116-1.281
				c0.717-0.665,1.257-1.404,1.779-2.232"/>
			<path style="fill:none;stroke:#303030;stroke-width:1.5;stroke-linecap:round;stroke-linejoin:round;stroke-miterlimit:10;" d="
				M202.727,176.579c-0.819,1.314-1.866,2.392-3.087,3.485c-0.754,0.675-1.602,1.289-2.581,1.543
				c-0.84,0.218-2.023,0.218-2.628-0.439c-0.796-0.864-0.5-1.728,0.21-2.542c0.374-0.429,0.505-0.703,0.922-1.09"/>
			<path style="fill:none;stroke:#303030;stroke-width:1.5;stroke-linecap:round;stroke-linejoin:round;stroke-miterlimit:10;" d="
				M192.409,177.18c0.039,0.805-0.325,1.576-0.762,2.252c-1.589,2.455-4.32,4.136-7.228,4.449"/>
		</g>
		<g id="Chest_00000165940811698243033180000005128482882905338276_">
			
				<path style="fill:#F55571;stroke:#303030;stroke-width:1.5;stroke-linecap:round;stroke-linejoin:round;stroke-miterlimit:10;" d="
				M147.148,173.267c-7.137-8.635-9.983-10.978-14.981-12.67c-4.998-1.692-9.768-2.448-15.892-4.054
				c-0.616,5.588-16.073,9.836-23.883,0.662l-17.644,6.437c0,0-7.806,9.171-2.509,27.267c0.633,2.163,4.678,12.505,3.799,20.744
				c-0.247,2.32-0.868,4.534-2.805,9.067c-0.853,1.998-1.796,7.4,2.172,10.164c17.131,11.937,47.161,17.216,65.089-0.712
				c4.212-4.212,1.851-9.469,1.139-11.612c-1.059-3.187-2.359-7.887-1.923-13.272c11.295-4.504,15.628-19.214,15.628-19.214
				C157.2,176.579,152.054,179.203,147.148,173.267z"/>
			
				<path id="Chest_00000049942608406489260800000007739715878965489042_" style="fill:none;stroke:#303030;stroke-width:1.5;stroke-linecap:round;stroke-linejoin:round;stroke-miterlimit:10;" d="
				M141.633,218.561c-1.18-3.551-2.667-8.978-1.708-15.141c3.905-13.515,7.56-18.342-6.482-32.643"/>
			
				<path style="fill:#F55571;stroke:#303030;stroke-width:1.5;stroke-linecap:round;stroke-linejoin:round;stroke-miterlimit:10;" d="
				M155.339,186.075c0,0-4.333,14.709-15.628,19.214l4.221,3.322c11.295-4.504,15.344-17.775,15.344-17.775L155.339,186.075z"/>
		</g>
		<g id="Head_00000120547847489152845470000011746873388105706394_">
			<g id="Hair">
				<path style="fill:#303030;" d="M106.283,156.747c1.047-0.002,2.188-0.247,3.109-0.762c0.211-0.118,2.167-2.031,1.807-2.169
					c2.236,0.857,4.837,0.706,6.958-0.405c2.121-1.111,3.727-3.163,4.296-5.489c1.817,0.226,3.664,0.451,5.471,0.157
					c1.808-0.294,3.603-1.185,4.567-2.741c0.704-1.136,0.905-2.571,0.54-3.857c1.479,0.765,3.103,1.309,4.768,1.329
					c1.665,0.02,3.375-0.525,4.562-1.693c1.187-1.168,1.763-2.994,1.241-4.575c-0.349,0.843-1.372,1.315-2.261,1.108
					c-0.889-0.207-1.579-1.022-1.719-1.924c-0.285-1.825,1.529-3.699,2.48-5.079c1.117-1.62,2.127-3.415,2.26-5.421
					c0.178-2.694-1.433-5.419-3.88-6.562c2.596-0.647,3.756-4.037,2.857-6.354c-0.561-1.446-1.657-2.617-2.817-3.647
					c0.46,1.36-0.132,3-1.355,3.752c-1.637,1.007-3.558,0.229-4.618-1.204c-1.711-2.312-0.358-5.261-0.578-7.836
					c-0.219-2.562-1.434-5.049-3.388-6.732c-2.604-2.244-6.424-2.978-9.674-1.859c-3.035-5.587-10.692-5.268-15.17-1.72
					c-1.123-1.881-3.531-2.578-5.721-2.594c-2.09-0.016-4.24,0.47-5.915,1.719s-2.795,3.342-2.545,5.417
					c-2.604-1.289-5.859-1.467-8.362,0.007c-2.503,1.474-3.949,4.762-2.896,7.47c-2.279-0.583-4.826,0.262-6.417,1.995
					c-1.591,1.733-2.221,4.257-1.78,6.568c0.213,1.117,0.722,1.841,0.05,2.914c-0.513,0.818-1.452,1.402-2.433,1.359
					c-1.541-0.067-2.834-1.654-2.587-3.177c-1.259,0.667-2.073,2.097-2.004,3.52c0.069,1.423,1.018,2.767,2.336,3.309
					c-1.486,0.546-2.775,1.643-3.484,3.058c-0.709,1.415-0.81,3.137-0.203,4.599c0.942,2.27,3.734,3.841,3.232,6.587
					c-0.243,1.327-1.221,2.376-1.9,3.542c-0.975,1.675-1.341,3.739-0.795,5.599c0.545,1.86,2.06,3.454,3.946,3.902
					c1.562,0.371,3.207-0.035,4.696-0.634c0.208,2.687,2.386,5.003,4.982,5.725s5.468-0.011,7.651-1.591
					c0.096-0.069,0.197-0.143,0.315-0.151c0.205-0.015,0.364,0.166,0.492,0.327c1.593,2.001,3.873,3.516,6.402,3.892
					c2.53,0.376,5.282-0.493,6.915-2.461c0.061-0.073,0.124-0.15,0.214-0.182c0.184-0.064,0.366,0.093,0.501,0.234
					C102.078,155.736,104.159,156.752,106.283,156.747z"/>
				
					<ellipse transform="matrix(1 -0.006 0.006 1 -0.7377 0.6354)" style="fill:#303030;" cx="104.718" cy="122.333" rx="23.323" ry="22.275"/>
			</g>
			<g>
				<path style="fill:#753C40;" d="M114.526,157.424l-1.225-9.42c7.837-1.7,16.952-7.957,14.891-23.407
					c-0.493-3.69-0.873-7.807-2.599-10.721l0,0c-2.374-4.752-4.4-5.392-7.06-7.342c-3.973-3.291-14.858-3.584-23.774,1.678
					c-9.055,6.268-7.551,17.572-7.551,17.572c1.04,1.982,1.834,4.081,2.359,6.241c-1.707-2.23-4.269-4.008-7.154-4.222
					c-2.884-0.214-5.986,1.468-6.714,4.143c-0.72,2.644,1.065,5.513,3.618,6.744c2.553,1.23,6.046,1.299,9.19-0.326l0.004-0.002
					c1.025,2.26,2.746,4.823,6.226,6.683l-1.419,13.651C103.134,162.734,112.236,161.9,114.526,157.424z"/>
			</g>
			<g>
				<g>
					<path style="fill:#303030;" d="M107.766,133.924c1.832-0.099,4.748,0.294,5.3,1.642c0.255-1.321,1.022-1.74,1.022-1.74
						s-0.876-0.064-1.964-0.492c-1.088-0.428-2.216-0.361-3.124-0.003C108.092,133.688,107.766,133.924,107.766,133.924z"/>
					<path style="fill:#FFFFFF;" d="M108.621,133.246c-0.263,0.115-0.513,0.257-0.746,0.424c-0.26,0.186-0.334,0.485-0.051,0.692
						c0.125,0.092,0.281,0.132,0.433,0.162c0.968,0.192,1.969,0.055,2.937-0.135c0.227-0.045,0.471-0.103,0.616-0.283
						c0.14-0.173,0.133-0.404,0.031-0.594c-0.101-0.188-0.322-0.264-0.517-0.343c-0.475-0.193-0.997-0.268-1.507-0.227
						C109.405,132.974,109.001,133.08,108.621,133.246z"/>
					
						<path style="fill:none;stroke:#303030;stroke-width:1.5;stroke-linecap:round;stroke-linejoin:round;stroke-miterlimit:10;" d="
						M103.674,134.113c1.444,0.683,2.616,0.33,3.328,0.179c1.351-0.286,2.237-1.33,3.671-1.26c0.877,0.043,1.699,0.423,2.556,0.616
						c0.904,0.203,1.855,0.195,2.755-0.025"/>
					
						<path style="fill:none;stroke:#303030;stroke-width:1.5;stroke-linecap:round;stroke-linejoin:round;stroke-miterlimit:10;" d="
						M114.458,133.83c-0.778,0.185-1.3,0.736-1.376,1.531c-0.012,0.12-0.022,0.437-0.077,0.545c-0.093,0.186-0.199,0.29-0.559,0.431
						c-1.476,0.577-4.539,1.067-6.459-1.721"/>
				</g>
				<path style="fill:none;stroke:#303030;stroke-width:1.5;stroke-linecap:round;stroke-linejoin:round;stroke-miterlimit:10;" d="
					M78.352,133.128c1.289-1.069,3.164-1.452,4.797-0.978c1.633,0.473,2.968,1.787,3.415,3.36"/>
				<path style="fill:none;stroke:#303030;stroke-width:1.5;stroke-linecap:round;stroke-linejoin:round;stroke-miterlimit:10;" d="
					M81.467,134.796c0.532-0.504,1.258-0.786,1.996-0.911c0.737-0.125,1.492-0.103,2.24-0.075"/>
				<path style="fill:none;stroke:#303030;stroke-width:1.5;stroke-linecap:round;stroke-linejoin:round;stroke-miterlimit:10;" d="
					M109.041,120.008c0.4,1.354,1.611,2.612,2.566,3.63c0.542,0.578,1.126,1.131,1.536,1.81c0.559,0.924,0.072,2.375-2.397,4.094"/>
				<g>
					<g>
						<path style="fill:#FFFFFF;" d="M123.69,121.257c-0.886-1.592-2.804-2.542-4.68-2.319c-1.876,0.223-4.354,1.625-4.321,4.304
							C115.895,125.704,121.908,125.31,123.69,121.257z"/>
						<path style="fill:#F55571;" d="M114.042,123.397c-0.892-2.842,1.87-5.479,4.101-6.329c2.409-0.918,5.871-0.832,6.774,2.226
							c-0.178,0.432-1.386,1.096-1.386,1.096s-1.439-2.49-5.092-1.235C114.786,120.41,114.042,123.397,114.042,123.397z"/>
						<path style="fill:#303030;" d="M121.892,123.071c-0.386,1.348-1.846,2.121-3.259,1.726c-1.413-0.395-2.246-1.808-1.86-3.156
							c0.386-1.348,1.846-2.121,3.259-1.726C121.446,120.31,122.279,121.723,121.892,123.071z"/>
						<polygon style="fill:#FFFFFF;" points="116.58,121.603 119.333,122.356 116.476,123.062 						"/>
						
							<path style="fill:none;stroke:#303030;stroke-width:1.5;stroke-linecap:round;stroke-linejoin:round;stroke-miterlimit:10;" d="
							M114.689,123.242c0.788-2.39,2.449-3.25,4.067-3.719c1.775-0.514,3.204-0.272,4.889,1.094"/>
					</g>
					
						<path style="fill:none;stroke:#303030;stroke-width:1.5;stroke-linecap:round;stroke-linejoin:round;stroke-miterlimit:10;" d="
						M125.208,119.191c-0.208,0.705-0.841,1.266-1.566,1.387"/>
					
						<path style="fill:none;stroke:#303030;stroke-width:1.5;stroke-linecap:round;stroke-linejoin:round;stroke-miterlimit:10;" d="
						M115.223,113.895c2.676-0.621,5.322-0.029,7.414,1.417"/>
				</g>
				<g>
					<g>
						<path style="fill:#FFFFFF;" d="M96.783,123.893c0.618-1.714,2.357-2.961,4.244-3.044c1.887-0.083,4.559,0.902,4.959,3.551
							C105.193,127.024,99.195,127.605,96.783,123.893z"/>
						<path style="fill:#F55571;" d="M106.616,124.31c0.32-2.962-2.905-5.008-5.259-5.405c-2.542-0.429-5.921,0.331-6.209,3.507
							c0.258,0.389,1.573,0.804,1.573,0.804s0.924-2.723,4.753-2.206C105.302,121.526,106.616,124.31,106.616,124.31z"/>
						<path style="fill:#303030;" d="M103.917,124.989c-0.414,1.34-1.889,2.082-3.294,1.658c-1.405-0.424-2.208-1.854-1.794-3.194
							c0.414-1.34,1.889-2.082,3.294-1.658C103.528,122.219,104.331,123.649,103.917,124.989z"/>
						<polygon style="fill:#FFFFFF;" points="98.636,123.411 101.373,124.221 98.502,124.868 						"/>
						
							<path style="fill:none;stroke:#303030;stroke-width:1.5;stroke-linecap:round;stroke-linejoin:round;stroke-miterlimit:10;" d="
							M105.987,124.401c-1.163-2.231-2.941-2.813-4.614-3.015c-1.834-0.221-3.206,0.248-4.648,1.868"/>
					</g>
					
						<path style="fill:none;stroke:#303030;stroke-width:1.5;stroke-linecap:round;stroke-linejoin:round;stroke-miterlimit:10;" d="
						M94.952,122.099c0.319,0.662,1.034,1.114,1.769,1.117"/>
					
						<path style="fill:none;stroke:#303030;stroke-width:1.5;stroke-linecap:round;stroke-linejoin:round;stroke-miterlimit:10;" d="
						M103.421,114.881c-3.331-0.189-5.412,0.398-7.693,2.735"/>
				</g>
				<g>
					<g>
						<path style="fill:#303030;" d="M101.032,147.198c0,0,5.593,1.801,12.268,0.806l0.405,3.112
							C111.103,151.416,103.426,151.18,101.032,147.198z"/>
					</g>
				</g>
			</g>
			<g>
				<path style="fill:#303030;" d="M97.313,103.584c0.104-10.989,12.987-12.623,16.775-6.635c3.457,5.464,5.491,3.886,11.12,5.391
					c5.65,1.51,7.463,6.86,5.279,12.972c-1.622,4.54-0.622,6.415,2.903,6.787c0,0-3.449,3.842-6.97,0.963
					c-2.507-2.05-1.7-5.075-1.65-7.884c0.024-1.331-0.306-2.665-1.297-3.606c-1.487-1.412-3.156-1.078-4.544-0.985
					c-1.849,0.124-3.007,0.353-4.487-0.019c-1.737-0.437-2.615-1.506-3.642-2.973c-1.32-1.884-2.566-3.272-5.011-3.188
					c-2.479,0.085-4.405,1.665-5.255,4.074c-3.076-1.332-5.66-0.213-6.519,0.538c-2.559,2.237-1.049,4.928-0.382,7.655
					c0.343,1.404,0.472,2.914-0.021,4.273c-0.453,1.249-1.401,2.272-2.495,3.024c-1.094,0.753-2.336,1.259-3.579,1.727
					c-1.267,0.476-1.796,1.639-2.251,2.853c0,0-4.567-1.835-5.101-7.974c-0.534-6.139,5.961-2.668,5.517-8.542
					S87.026,98.869,97.313,103.584z"/>
				<path style="fill:none;stroke:#753C40;stroke-width:1.5;stroke-linecap:round;stroke-linejoin:round;stroke-miterlimit:10;" d="
					M114.089,96.949c3.457,5.464,5.491,3.886,11.12,5.391c5.65,1.51,7.463,6.86,5.279,12.972c-1.622,4.54-0.622,6.415,2.903,6.787
					c0,0-1.335,2.889-5.545,2.615"/>
			</g>
			
				<path id="Neck" style="fill:#F55571;stroke:#303030;stroke-width:1.5;stroke-linecap:round;stroke-linejoin:round;stroke-miterlimit:10;" d="
				M94.266,149.577c-1.607,0.093-3.209,1.086-3.209,4.06c0,2.471-1.573,3.381-1.017,5.935c0.576,2.648,5.374,5.463,14.137,5.689
				c7.483,0.193,13.474-3.172,14.256-6.455c0.65-2.731-0.983-4.178-1.317-5.904c-0.334-1.726-0.708-3.283-3.411-3.283l0.12,3.123
				c0,0-1.317,2.309-9.64,2.309c-8.323,0-10.217-2.763-10.217-2.763L94.266,149.577z"/>
		</g>
		<g id="Arms_00000134208427919257528160000012102792829941710492_">
			<g id="Mobile_00000174588307188522366250000002057450737308946855_">
				<path style="fill:#00826F;" d="M132.344,222.238l14.508,0.016c1.49,0.001,3.12-1.162,3.641-2.598l11.317-31.168
					c0.521-1.437-0.263-2.602-1.753-2.604l-14.509-0.016c-1.49-0.002-3.12,1.161-3.641,2.598l-11.317,31.167
					C130.069,221.07,130.854,222.236,132.344,222.238z"/>
				<path style="fill:#303030;" d="M135.358,222.241l14.508,0.016c1.49,0.002,3.12-1.161,3.641-2.598l11.317-31.168
					c0.521-1.436-0.263-2.602-1.753-2.604l-14.508-0.016c-1.49-0.002-3.12,1.162-3.641,2.598l-11.317,31.167
					C133.084,221.074,133.869,222.239,135.358,222.241z"/>
				<path style="fill:#00826F;" d="M145.291,194.914l2.987,0.003c0.219,0,0.458-0.171,0.535-0.382l2.2-6.059
					c0.076-0.211-0.039-0.382-0.257-0.382l-2.987-0.003c-0.219,0-0.458,0.171-0.535,0.382l-2.2,6.059
					C144.957,194.743,145.072,194.914,145.291,194.914z"/>
				<path style="fill:#FFFFFF;" d="M147.538,189.904c-0.186,0.542,0.143,0.983,0.736,0.984c0.593,0.001,1.225-0.439,1.411-0.981
					c0.186-0.543-0.143-0.983-0.736-0.984C148.356,188.922,147.724,189.361,147.538,189.904z"/>
				<path style="fill:#FFFFFF;" d="M146.361,193.103c-0.186,0.542,0.143,0.983,0.736,0.984c0.593,0.001,1.225-0.439,1.411-0.981
					c0.187-0.543-0.143-0.983-0.736-0.984C147.179,192.121,146.547,192.561,146.361,193.103z"/>
			</g>
			<g>
				<path style="fill:#753C40;" d="M76.511,219.386c-5.478-13.65-9.867-21.889-12.855-31.928c-2.466-8.285-1.831-20.17,12.471-23.25
					c5.502,5.892,8.536,10.356,12.146,19.992l9.835,24.108c9.324,0.45,22.105,0.755,25.824,0.358
					c6.202-0.662,7.752-6.356,13.625-8.216l-1.752,4.824c-0.363,1.393,1.222,1.791,2.276,2.025c3.041,0.677,6.171,1.199,9.264,0.821
					c1.752-0.214,3.523-0.715,5.254-0.372c0.466,0.092,0.962,0.277,1.197,0.69c1.542,2.71-6.128,4.299-9.857,4.646
					c-1.229,0.114-2.368,0.071-3.465,0.176c-0.669,0.064-0.585,0.578,0.003,0.73c1.104,0.285,4.417,0.468,6.399,0.342
					c2.218-0.141,3.941-0.464,6.095-1.014c0.79-0.202,1.703-0.403,2.52-0.358c0.174,0.01,0.35,0.027,0.516,0.079
					c0.39,0.123,0.707,0.439,0.862,0.818c0.369,0.9-0.116,2.044-0.747,2.698c-0.585,0.605-1.311,1.073-2.104,1.354
					c0.299,0.482,0.44,1.283,0.231,1.885c-0.27,0.779-1.045,1.283-1.541,1.56c-1.111,0.621-1.981,0.928-2.853,1.062
					c0.619,1.588,0.086,2.857-1.327,3.407c-1.496,0.582-3.424,0.662-5.256,0.68c-3.029,0.029-5.637,0.106-9.416-0.397
					c-2.496-0.332-6.192-0.474-8.705-0.325c-5.317,0.316-20.03,3.64-31.473,4.655C84.989,231.208,80.545,229.437,76.511,219.386z"/>
				<path style="fill:none;stroke:#303030;stroke-width:1.5;stroke-linecap:round;stroke-linejoin:round;stroke-miterlimit:10;" d="
					M98.151,207.876c-3.093,0.32-7.017,2.022-9.263,4.528"/>
				<g>
					<g>
						<path style="fill:#303030;" d="M140.981,219.792c3.036,0.333,6.172,0.046,9.172-0.47c2.238-0.384,4.903-0.96,6.597-2.603
							c0.77-0.747,1.186-1.793,0.82-2.845c-0.292-0.838-0.939-1.477-1.791-1.731c-1.099-0.328-2.34-0.084-3.419,0.201
							c-1.146,0.302-2.266,0.593-3.444,0.747c-2.83,0.37-5.925,0.488-8.704-0.262c-0.933-0.252-1.331,1.195-0.399,1.446
							c2.224,0.6,4.613,0.645,6.9,0.516c1.203-0.068,2.405-0.198,3.592-0.407c1.074-0.189,2.099-0.547,3.166-0.762
							c0.675-0.136,1.671-0.303,2.262,0.133c0.536,0.396,0.61,1.149,0.149,1.702c-0.517,0.621-1.33,1.035-2.066,1.336
							c-1.155,0.473-2.396,0.768-3.619,1.001c-2.996,0.57-6.174,0.829-9.214,0.496C140.023,218.187,140.03,219.688,140.981,219.792
							L140.981,219.792z"/>
					</g>
				</g>
				<g>
					<g>
						<path style="fill:#303030;" d="M150.841,221.534c-2.973,0.768-6.089,1.098-9.151,0.802c-0.404-0.039-0.75,0.373-0.75,0.75
							c0,0.438,0.345,0.711,0.75,0.75c3.186,0.309,6.458-0.056,9.55-0.855C152.174,222.739,151.778,221.292,150.841,221.534
							L150.841,221.534z"/>
					</g>
				</g>
			</g>
			<g>
				
					<path style="fill:#F55571;stroke:#303030;stroke-width:1.5;stroke-linecap:round;stroke-linejoin:round;stroke-miterlimit:10;" d="
					M76.148,163.169c-6.723,2.224-12.188,6.985-13.612,13.71c-1.424,6.725,1.098,11.816,2.725,18.916
					c0.467,2.037-1.618,5.171,4.158,7.544c3.773-6.757,16.268-10.786,22.686-9.726c2.183-3.432,1.355-4.533-1.572-8.172
					c-2.186-2.717-2.1-6.015-2.806-8.862"/>
				<g>
					<g>
						<path style="fill:#F55571;" d="M92.105,193.613c-6.417-1.06-18.912,2.969-22.686,9.726l2.562,5.765
							c3.773-6.757,16.268-10.786,22.686-9.726L92.105,193.613z"/>
					</g>
					<g>
						
							<path style="fill:none;stroke:#303030;stroke-width:1.5;stroke-linecap:round;stroke-linejoin:round;stroke-miterlimit:10;" d="
							M92.105,193.613c-6.417-1.06-18.912,2.969-22.686,9.726l2.562,5.765c3.773-6.757,16.268-10.786,22.686-9.726L92.105,193.613z"
							/>
					</g>
				</g>
			</g>
		</g>
		<g id="Legs_00000177446999816430834950000000314312699335302069_">
			<g>
				<g>
					<path style="fill:#AD6163;" d="M219.486,435.481c1.154,1.673,3.051,4.883,1.246,7.771c-0.755,1.208-4.981,4.395-13.227,1.647
						c-4.96-1.653-9.573-2.241-15.063-8.385c-5.958-6.668-10.78-15.716-17.378-21.751c-2.327-2.128-6.899-6.335-8.716-8.912
						c-1.467-2.081-2.355-4.956-1.283-8.213c1.58-4.799,7.055-8.527,10.479-12.242c2.678-2.906,3.521-6.968,3.983-10.463
						c0.385-2.914,1.472-18.016,2.494-25.355c1.055-7.572,2.868-17.051,5.45-24.291c3.083-8.646,6.873-14.648,6.873-14.648
						s-4.321-1.16-19.861-4.66c-28.637-6.45-58.113-11.306-72.772-27.757c-13.097-14.698-10.277-33.585-9.898-42.462h58.956
						c27.004,12.311,64.618,33.146,74.416,40.832c9.598,7.529,15.683,14.945,10.941,31.886c-2.036,7.273-5.201,15.613-17.828,44.382
						c-3.127,7.124-5.394,13.947-7.884,21.318c-2.993,8.859-6.913,16.701-6.619,25.706c0.099,3.036,3.217,16.242,7.609,22.703
						C213.21,425.248,217.436,432.509,219.486,435.481z"/>
				</g>
				<path style="fill:none;stroke:#303030;stroke-width:1.5;stroke-linecap:round;stroke-linejoin:round;stroke-miterlimit:10;" d="
					M202.983,307.942c-2.955,1.372-5.567,2.1-8.639,2.695"/>
				
					<path style="fill:#FFFFFF;stroke:#303030;stroke-width:1.5;stroke-linecap:round;stroke-linejoin:round;stroke-miterlimit:10;" d="
					M180.186,363.621c-1.404-0.036-2.316,0.553-2.667,4.722c-0.181,2.143-0.34,5.358-1.658,8.623
					c-1.548,3.837-5.973,6.916-12.362,12.662c-5.444,4.896-2.441,11.062,1.525,16.301c3.966,5.239,9.836,8.112,12.367,11.662
					c2.531,3.549,7.927,10.884,10.404,14.764c2.477,3.88,9.21,11.41,18.826,14.164c5.693,1.631,12.012,0.853,13.785-0.924
					c1.773-1.777,3.414-5.661-0.774-11.016c-4.188-5.355-8.825-13.739-10.384-18.117c-3.607-10.13-4.812-17.885-3.834-22.693
					c0.979-4.807,2.289-7.362,3.463-10.391s4.187-7.509,1.558-8.811l-1.565,2.704c0,0-5.388,2.424-16.987-1.193
					s-11.986-9.638-11.986-9.638L180.186,363.621z"/>
				<g>
					
						<path style="fill:none;stroke:#303030;stroke-width:1.5;stroke-linecap:round;stroke-linejoin:round;stroke-miterlimit:10;" d="
						M218.361,450.762c4.251-4.838,4.277-8.713-0.834-17.179c-3.11-5.151-4.619-8.393-6.208-13.966
						c-1.125-3.947-2.107-9.773-2.845-14.877"/>
					<g>
						<path style="fill:#F55571;" d="M217.527,433.583c-3.11-5.151-4.619-8.393-6.208-13.966
							c-1.841-6.456-3.536-19.577-3.869-22.622c-0.434-3.966-6.202-9.033-12.559-7.839c-0.514-1.3-1.166-2.572-2.311-3.342
							c-1.089-0.733-2.448-0.891-3.748-1.027c-2.414-0.253-6.707,0.143-9.777-3.071c-3.047-3.19-3.938-4.795-3.938-4.795
							c0.411-0.863,0.91-2.413,1.09-3.677c-2.292-1-3.976,0.304-5.256,2.128c-1.28,1.824-1.485,3.461-3.881,5.493
							c-2.211,1.875-4.241,3.15-9.877,8.949c-2.878,3.98,0.048,8.084,5.535,13.44c7.058,6.889,30.904,30.164,30.904,30.164
							c5.06,4.939,12.896,12.588,15.952,15.57c3.056,2.983,7.812,2.871,8.777,1.773
							C222.613,445.923,222.638,442.049,217.527,433.583z"/>
					</g>
					
						<path style="fill:none;stroke:#303030;stroke-width:1.5;stroke-linecap:round;stroke-linejoin:round;stroke-miterlimit:10;" d="
						M199.596,420.176c4.636-0.606,11.49,1.22,14.133,6.3"/>
					
						<path style="fill:none;stroke:#303030;stroke-width:1.5;stroke-linecap:round;stroke-linejoin:round;stroke-miterlimit:10;" d="
						M210.557,416.552c-2.827-0.811-5.109-0.552-8.371,0.275"/>
					
						<path style="fill:none;stroke:#303030;stroke-width:1.5;stroke-linecap:round;stroke-linejoin:round;stroke-miterlimit:10;" d="
						M211.32,419.616c-2.284-2.428-6.316-5.042-12.93-9.652"/>
					
						<path style="fill:none;stroke:#303030;stroke-width:1.5;stroke-linecap:round;stroke-linejoin:round;stroke-miterlimit:10;" d="
						M208.877,408.872c-2.827-0.811-4.691-0.656-7.953,0.171"/>
					
						<path style="fill:none;stroke:#303030;stroke-width:1.5;stroke-linecap:round;stroke-linejoin:round;stroke-miterlimit:10;" d="
						M209.64,411.937c-2.284-2.428-6.316-5.042-12.93-9.652"/>
					
						<path style="fill:none;stroke:#303030;stroke-width:1.5;stroke-linecap:round;stroke-linejoin:round;stroke-miterlimit:10;" d="
						M207.781,400.795c-2.827-0.811-5.692-0.154-8.954,0.673"/>
					
						<path style="fill:none;stroke:#303030;stroke-width:1.5;stroke-linecap:round;stroke-linejoin:round;stroke-miterlimit:10;" d="
						M207.96,404.257c-2.284-2.428-6.316-5.042-12.93-9.652"/>
					
						<path style="fill:none;stroke:#303030;stroke-width:1.5;stroke-linecap:round;stroke-linejoin:round;stroke-miterlimit:10;" d="
						M168.584,379.246c-0.19,1.262-0.154,3.076,0.279,4.354c0.867,2.556,2.766,4.759,5.17,5.998
						c3.787,1.952,8.573,1.541,12.014,4.06c2.503,1.832,3.787,4.861,4.843,7.769c1.951,5.374,4.495,14.332,4.142,16.185
						c-0.353,1.853-3.18,5.964-5.905,9.926"/>
					
						<path style="fill:#FFFFFF;stroke:#303030;stroke-width:1.5;stroke-linecap:round;stroke-linejoin:round;stroke-miterlimit:10;" d="
						M209.458,455.684c-3.421-1.93-18.331-16.684-18.331-16.684s-24.964-24.367-30.675-29.941
						c-5.711-5.574-8.576-8.719-8.092-12.126c0.285-2.008,1.65-4.352,4.835-7.119c0.358,4.378-0.82,4.372,8.938,13.895
						c9.757,9.524,33.496,32.84,38.741,37.814c3.653,3.465,8.785,9.406,13.489,9.239
						C218.119,452.714,214.676,458.627,209.458,455.684z"/>
				</g>
			</g>
			<g>
				<g>
					<path style="fill:#AD6163;" d="M223.404,447.95c-4.484,0.022-10.211-0.084-13.587-3.311c-2.609-2.494-1.999-7.269-1.615-9.412
						c0.697-3.881,0.853-6.404,0.825-9.626c-0.037-4.12-4.011-8.39-7.085-10.671c-5.916-4.391-21.236-15.167-27.832-21.207
						c-9.158-8.386-13.771-14.612-19.735-25.716c-7.348-13.682-7.661-19.935-19.212-30.239
						c-18.29-16.317-57.992-33.665-64.023-61.638c-4.765-22.102,6.534-40.37,6.534-40.37h66.665
						c3.208,17.547-7.914,31.268-7.914,31.268s36.573,43.136,45.687,58.373c9.489,15.865,39.968,65.725,46.591,75.826
						c5.67,8.647,11.102,14.295,17.89,20.181c8.887,7.705,13.188,9.205,24.106,13.58c4.622,1.852,12.193,3.576,13.756,5.793
						c2.643,3.751-3.658,10.969-11.635,12.541c-7.953,1.567-15.437,1.96-22.92,0.049C237.839,450.289,235.42,447.89,223.404,447.95z
						"/>
				</g>
				<g>
					
						<path style="fill:#FFFFFF;stroke:#303030;stroke-width:1.5;stroke-linecap:round;stroke-linejoin:round;stroke-miterlimit:10;" d="
						M193.162,409.17c-1.079,2.153,1.081,3.941,4.324,6.149c2.657,1.809,3.758,2.511,4.985,3.957
						c1.971,2.323,2.617,5.191,2.943,10.164c0.09,1.383,2.381,5.735,2.204,8.059c-0.177,2.323-0.326,5.455,2.402,7.807
						c2.728,2.352,8.159,3.352,11.976,3.133c3.816-0.219,11.557,0.478,14.206,1.345c2.65,0.868,15.013,5.263,22.53,5.365
						c7.518,0.102,14.592-0.506,20.173-3.707c5.581-3.201,6.523-6.872,6.585-8.659c0.062-1.787-0.683-3.658-5.801-5.285
						c-5.118-1.626-14.131-4.801-19.539-7.591c-5.408-2.79-13.156-8.332-18.641-13.624c-5.485-5.292-7.447-10.462-9.001-13.663
						c-1.554-3.202-2.472-8.617-7.159-7.696l1.467,2.844c0,0-3.165,5.712-13.059,9.77c-12.271,5.033-16.669,3.849-16.669,3.849
						L193.162,409.17z"/>
				</g>
				<g>
					<g>
						<path style="fill:#F55571;" d="M277.306,433.617c-6.082-1.627-9.572-2.976-14.814-6.024
							c-6.072-3.532-16.87-12.192-19.332-14.246c-3.205-2.675-11.229-2.31-15.155,3.203c-1.331-0.607-2.745-1.092-4.167-0.843
							c-1.353,0.237-2.492,1.105-3.57,1.945c-2.003,1.561-4.952,4.974-9.598,4.779c-4.612-0.194-7.152-0.851-7.152-0.851
							c-0.517-1.022-1.272-1.878-2.593-3.06c-1.539,0.764-1.325,2.705-0.966,5.008s1.392,3.687,1.06,6.957
							c-0.306,3.018-0.911,5.452-0.953,13.913c0.718,5.088,5.902,6.06,13.924,6.116c10.32,0.072,45.184,0.316,45.184,0.316
							c7.399,0.052,18.855,0.132,23.323,0.163c4.468,0.031,7.972-3.504,7.903-5.031C290.094,439.23,287.302,436.291,277.306,433.617
							z"/>
					</g>
					<g>
						<g>
							<path style="fill:#303030;" d="M200.764,417.276c-0.822,0.628-1.52,1.379-1.78,2.409c-0.243,0.959-0.097,1.951,0.062,2.91
								c0.16,0.971,0.324,1.929,0.594,2.877c0.253,0.888,0.532,1.774,0.636,2.696c0.17,1.512-0.081,3.031-0.273,4.53
								c-0.17,1.327-0.318,2.656-0.419,3.991c-0.195,2.565-0.253,5.139-0.267,7.711c-0.005,0.965,1.495,0.967,1.5,0
								c0.021-3.673,0.148-7.344,0.597-10.992c0.138-1.122,0.32-2.246,0.394-3.375c0.133-2.037-0.466-3.82-0.936-5.763
								c-0.24-0.992-0.44-2.054-0.506-3.073c-0.071-1.098,0.265-1.944,1.156-2.624C202.278,417.993,201.531,416.69,200.764,417.276
								L200.764,417.276z"/>
						</g>
					</g>
					
						<path style="fill:none;stroke:#303030;stroke-width:1.5;stroke-linecap:round;stroke-linejoin:round;stroke-miterlimit:10;" d="
						M254.06,436.521c3.055-3.821,9.546-7.417,15.225-5.505"/>
					
						<path style="fill:none;stroke:#303030;stroke-width:1.5;stroke-linecap:round;stroke-linejoin:round;stroke-miterlimit:10;" d="
						M259.694,425.836c-2.72,1.44-4.252,3.291-6.111,6.282"/>
					
						<path style="fill:none;stroke:#303030;stroke-width:1.5;stroke-linecap:round;stroke-linejoin:round;stroke-miterlimit:10;" d="
						M262.492,427.593c-3.483-0.173-8.42,0.782-16.751,2.106"/>
					
						<path style="fill:none;stroke:#303030;stroke-width:1.5;stroke-linecap:round;stroke-linejoin:round;stroke-miterlimit:10;" d="
						M252.855,421.265c-2.72,1.44-4.012,2.909-5.871,5.9"/>
					
						<path style="fill:none;stroke:#303030;stroke-width:1.5;stroke-linecap:round;stroke-linejoin:round;stroke-miterlimit:10;" d="
						M255.654,423.023c-3.483-0.173-8.42,0.782-16.751,2.106"/>
					
						<path style="fill:none;stroke:#303030;stroke-width:1.5;stroke-linecap:round;stroke-linejoin:round;stroke-miterlimit:10;" d="
						M246.168,415.972c-2.72,1.44-4.403,4.014-6.262,7.005"/>
					
						<path style="fill:none;stroke:#303030;stroke-width:1.5;stroke-linecap:round;stroke-linejoin:round;stroke-miterlimit:10;" d="
						M248.815,418.452c-3.483-0.173-8.42,0.782-16.751,2.106"/>
					
						<path style="fill:none;stroke:#303030;stroke-width:1.5;stroke-linecap:round;stroke-linejoin:round;stroke-miterlimit:10;" d="
						M200.983,428.168c0.773,1.089,2.116,2.431,3.37,3.08c2.508,1.297,5.538,1.581,8.249,0.771
						c4.271-1.276,7.581-5.059,12.003-5.656c3.216-0.435,6.382,0.916,9.288,2.343c5.37,2.636,13.788,7.543,14.866,9.196
						c1.078,1.653,1.93,6.803,2.751,11.767"/>
					
						<path style="fill:#FFFFFF;stroke:#303030;stroke-width:1.5;stroke-linecap:round;stroke-linejoin:round;stroke-miterlimit:10;" d="
						M287.652,456.246c-3.979,1.027-25.925,0.724-25.925,0.724s-36.5-0.255-44.849-0.314c-8.349-0.058-12.791-0.35-14.899-3.269
						c-1.243-1.721-2.693-4.478-2.3-8.875c3.447,3.041,3.333,3.89,17.598,3.99s49.08,0.452,56.643,0.396
						c5.267-0.039,13.448,0.716,16.872-2.823C292.027,447.723,293.721,454.679,287.652,456.246z"/>
				</g>
			</g>
			<g>
				<path style="fill:#303030;" d="M140.495,230.173c-15.141,7.058-50.431,7.855-65.089,0.712
					c-7.293,21.87-8.988,39.408-4.087,52.156c6.905,17.96,19.544,27.323,34.264,37.094c11.184,7.424,27.94,17.529,33.795,24.664
					c5.855,7.134,7.179,13.077,13.541,25.822c5.286,10.59,16.017,21.812,32.094,32.94c25.897-6.773,30.981-23.566,30.981-23.566
					s-21.238-35.926-29.094-48.48c-7.856-12.554-10.413-16.86-18.054-26.056l23.458,6.342c-5.9,9.998-10.211,24.787-11.406,43.134
					c7.661,5.767,23.222,10.559,33.516,9.48c0,0,11.491-26.935,16.997-39.863c5.506-12.928,12.647-31.494-1.317-44.963
					C208.474,258.733,140.495,230.173,140.495,230.173z"/>
				<g>
					
						<path style="fill:none;stroke:#FFFFFF;stroke-width:1.5;stroke-linecap:round;stroke-linejoin:round;stroke-miterlimit:10;" d="
						M154.604,287.884c28.086,9.951,44.702,15.873,45.976,17.709c1.63,2.349-7.73,10.794-10.594,29.355"/>
					
						<path style="fill:none;stroke:#FFFFFF;stroke-width:1.5;stroke-linecap:round;stroke-linejoin:round;stroke-miterlimit:10;" d="
						M192.305,311.8c5.978-6.444,14.046-9.189,19.809-9.134"/>
					
						<path style="fill:none;stroke:#FFFFFF;stroke-width:1.5;stroke-linecap:round;stroke-linejoin:round;stroke-miterlimit:10;" d="
						M177.53,398.076c10.412-2.031,28.996-13.097,33.657-26.194"/>
					
						<path style="fill:none;stroke:#FFFFFF;stroke-width:1.5;stroke-linecap:round;stroke-linejoin:round;stroke-miterlimit:10;" d="
						M184.656,326.551c1.736,3.179,23.215,38.488,23.215,38.488"/>
					
						<path style="fill:none;stroke:#FFFFFF;stroke-width:1.5;stroke-linecap:round;stroke-linejoin:round;stroke-miterlimit:10;" d="
						M201.495,354.292c5.394,1.244,11.131,2.092,16.297,2.207"/>
					
						<path style="fill:none;stroke:#FFFFFF;stroke-width:1.5;stroke-linecap:round;stroke-linejoin:round;stroke-miterlimit:10;" d="
						M149.167,253.279c-0.614,6.323-3.354,10.78-8.018,14.29c-0.9,0.678-1.647,1.116-1.77,1.587
						c-0.215,0.823,0.526,1.575,0.818,1.927c7.157,8.625,22.07,25.466,30.372,35.359"/>
					
						<path style="fill:none;stroke:#FFFFFF;stroke-width:1.5;stroke-linecap:round;stroke-linejoin:round;stroke-miterlimit:10;" d="
						M80.793,235.538c-8.372,33.925-2.961,44.983,8.872,59.393c6.352,7.735,20.786,16.75,32.772,23.984
						c12.446,7.511,21.085,13.567,26.288,23.701s15.414,35.622,36.21,53.061"/>
					
						<path style="fill:none;stroke:#FFFFFF;stroke-width:1.5;stroke-linecap:round;stroke-linejoin:round;stroke-miterlimit:10;" d="
						M92.759,238.189c-3.433,15.637,0,31.274-15.611,31.274"/>
				</g>
			</g>
		</g>
	</g>
</g>
</svg>
